<?xml version="1.0" encoding="UTF-8" standalone="no"?>
<!-- Created with Inkscape (http://www.inkscape.org/) -->

<svg
   version="1.1"
   id="svg2"
   width="4203.5732"
   height="3502.9734"
   viewBox="0 0 4203.5732 3502.9734"
   sodipodi:docname="Bloggers and influencers writing articles (1) [Converted].ai"
   xmlns:inkscape="http://www.inkscape.org/namespaces/inkscape"
   xmlns:sodipodi="http://sodipodi.sourceforge.net/DTD/sodipodi-0.dtd"
   xmlns="http://www.w3.org/2000/svg"
   xmlns:svg="http://www.w3.org/2000/svg">
  <defs
     id="defs6">
    <clipPath
       clipPathUnits="userSpaceOnUse"
       id="clipPath16">
      <path
         d="M 0,2627.234 H 3152.681 V 0 H 0 Z"
         id="path14" />
    </clipPath>
    <clipPath
       clipPathUnits="userSpaceOnUse"
       id="clipPath88">
      <path
         d="m 2146.9,1777.1 h 506.85 V 1018.92 H 2146.9 Z"
         id="path86" />
    </clipPath>
    <clipPath
       clipPathUnits="userSpaceOnUse"
       id="clipPath116">
      <path
         d="m 2187.3,1139.06 h 908.16 V 694.092 H 2187.3 Z"
         id="path114" />
    </clipPath>
    <clipPath
       clipPathUnits="userSpaceOnUse"
       id="clipPath276">
      <path
         d="m 2241.58,1824.99 h 30.1 v -36.96 h -30.1 z"
         id="path274" />
    </clipPath>
    <clipPath
       clipPathUnits="userSpaceOnUse"
       id="clipPath440">
      <path
         d="m 2734.3,1650.58 h 40.25 v -59.26 h -40.25 z"
         id="path438" />
    </clipPath>
    <clipPath
       clipPathUnits="userSpaceOnUse"
       id="clipPath456">
      <path
         d="m 2687.62,1638.71 h 36.37 v -59.76 h -36.37 z"
         id="path454" />
    </clipPath>
    <clipPath
       clipPathUnits="userSpaceOnUse"
       id="clipPath488">
      <path
         d="m 2901.48,1330.31 h 28.56 v -30.65 h -28.56 z"
         id="path486" />
    </clipPath>
    <clipPath
       clipPathUnits="userSpaceOnUse"
       id="clipPath876">
      <path
         d="m 600.689,988.359 h 42.749 v -60.783 h -42.749 z"
         id="path874" />
    </clipPath>
    <clipPath
       clipPathUnits="userSpaceOnUse"
       id="clipPath892">
      <path
         d="m 648.548,965.127 h 39.409 v -60.969 h -39.409 z"
         id="path890" />
    </clipPath>
  </defs>
  <sodipodi:namedview
     id="namedview4"
     pagecolor="#ffffff"
     bordercolor="#000000"
     borderopacity="0.25"
     inkscape:showpageshadow="2"
     inkscape:pageopacity="0.0"
     inkscape:pagecheckerboard="0"
     inkscape:deskcolor="#d1d1d1" />
  <g
     id="g8"
     inkscape:groupmode="layer"
     inkscape:label="Bloggers and influencers writing articles (1) [Converted]"
     transform="matrix(1.3333333,0,0,-1.3333333,0,3502.9733)">
    <g
       id="g10">
      <g
         id="g12"
         clip-path="url(#clipPath16)">
        <g
           id="g18"
           transform="translate(598.6043,1862.6132)">
          <path
             d="m 0,0 c -20.007,-19.691 -32.212,-19.192 -39.93,-11.35 -7.718,7.84 -8.024,20.052 11.98,39.744 36.442,35.869 68.028,39.01 68.028,39.01 C 40.078,67.404 36.971,36.391 0,0"
             style="fill:#7fc064;fill-opacity:1;fill-rule:nonzero;stroke:none"
             id="path20" />
        </g>
        <g
           id="g22"
           transform="translate(746.5724,1224.15)">
          <path
             d="M 0,0 -5.249,-0.845 C -5.377,-0.04 -18.966,81.28 -75.136,191.27 -126.969,292.753 -226.692,440.101 -407.449,565.745 l 3.029,4.362 C -222.663,443.771 -122.402,295.559 -70.299,193.472 -13.805,82.79 -0.133,0.815 0,0"
             style="fill:#7fc064;fill-opacity:1;fill-rule:nonzero;stroke:none"
             id="path24" />
        </g>
        <g
           id="g26"
           transform="translate(531.402,1625.8087)">
          <path
             d="m 0,0 -5.038,1.685 c 61.232,182.96 -47.738,358.952 -48.847,360.709 l 4.494,2.834 C -48.27,363.451 62.047,185.391 0,0"
             style="fill:#7fc064;fill-opacity:1;fill-rule:nonzero;stroke:none"
             id="path28" />
        </g>
        <g
           id="g30"
           transform="translate(432.7734,1689.864)">
          <path
             d="m 0,0 c -52.331,-13.176 -98.474,3.068 -99.003,3.258 l 1.803,4.996 c 0.587,-0.211 59.702,-20.948 119.022,4.734 L 23.933,8.113 C 15.909,4.64 7.878,1.985 0,0"
             style="fill:#7fc064;fill-opacity:1;fill-rule:nonzero;stroke:none"
             id="path32" />
        </g>
        <g
           id="g34"
           transform="translate(328.4491,1817.7533)">
          <path
             d="m 0,0 c 33.448,-17.724 39.222,-30.877 34.07,-40.597 -5.151,-9.722 -19.277,-12.332 -52.725,5.393 -60.931,32.287 -81.051,65.493 -81.051,65.493 0,0 37.888,2.468 99.706,-30.289"
             style="fill:#7fc064;fill-opacity:1;fill-rule:nonzero;stroke:none"
             id="path36" />
        </g>
        <g
           id="g38"
           transform="translate(343.3938,1713.2562)">
          <path
             d="m 0,0 c 37.236,-6.813 46.707,-17.614 44.726,-28.435 -1.98,-10.824 -14.663,-17.568 -51.898,-10.757 -67.829,12.415 -97.028,38.011 -97.028,38.011 0,0 35.381,13.777 104.2,1.181"
             style="fill:#7fc064;fill-opacity:1;fill-rule:nonzero;stroke:none"
             id="path40" />
        </g>
        <g
           id="g42"
           transform="translate(464.8024,1785.199)">
          <path
             d="m 0,0 c 12.881,-24.94 8.788,-36.452 -0.986,-41.501 -9.775,-5.049 -21.532,-1.724 -34.413,23.216 -23.464,45.432 -17.107,76.532 -17.107,76.532 0,0 28.699,-12.155 52.506,-58.247"
             style="fill:#7fc064;fill-opacity:1;fill-rule:nonzero;stroke:none"
             id="path44" />
        </g>
        <g
           id="g46"
           transform="translate(487.6181,2014.641)">
          <path
             d="m 0,0 c 17.544,-33.543 14.858,-47.654 5.108,-52.752 -9.749,-5.099 -22.87,0.745 -40.413,34.288 -31.957,61.105 -29.748,99.87 -29.748,99.87 0,0 32.63,-19.41 65.053,-81.406"
             style="fill:#7fc064;fill-opacity:1;fill-rule:nonzero;stroke:none"
             id="path48" />
        </g>
        <g
           id="g50"
           transform="translate(881.1367,1048.7354)">
          <path
             d="M 0,0 C 0,0 -624.404,587.673 -815.264,398.323 -1006.126,208.977 -288.943,104.859 -113.88,-72.449 Z"
             style="fill:#7fc064;fill-opacity:1;fill-rule:nonzero;stroke:none"
             id="path52" />
        </g>
        <g
           id="g54"
           transform="translate(817.7911,1007.6459)">
          <path
             d="m 0,0 c -118.675,124.651 -289.472,218.229 -411.854,274.78 -132.678,61.308 -238.55,93.492 -239.605,93.81 l 1.987,6.582 c 1.058,-0.319 107.395,-32.642 240.505,-94.15 C -286.044,224.219 -114.443,130.177 4.977,4.743 Z"
             style="fill:#7fc064;fill-opacity:1;fill-rule:nonzero;stroke:none"
             id="path56" />
        </g>
        <g
           id="g58"
           transform="translate(267.7486,788.2759)">
          <path
             d="m 0,0 c 119.405,-15.881 114.306,-195.092 245.358,-151.3 131.052,43.873 119.27,51.534 188.299,-1.34 0,0 29.595,-54.112 83.535,-59.131 212.828,-19.809 474.581,313.774 241.796,467.04 -16.809,11.067 -40.207,13.955 -66.007,15.882 C 553.037,281.51 515.118,214.582 393.052,368.616 270.945,522.69 142.115,277.161 48.77,277.866 -44.572,278.571 -128.5,299.743 -192.752,195.684 -257.006,91.544 -119.408,15.801 0,0"
             style="fill:#4db05b;fill-opacity:1;fill-rule:nonzero;stroke:none"
             id="path60" />
        </g>
        <g
           id="g62"
           transform="translate(978.1859,812.3519)">
          <path
             d="M 0,0 3.875,6.909 C 0.832,8.617 -307.866,177.534 -917.562,142.373 l 0.456,-7.913 C -309.699,169.488 -3.031,1.698 0,0"
             style="fill:#f4f4f4;fill-opacity:1;fill-rule:nonzero;stroke:none"
             id="path64" />
        </g>
        <g
           id="g66"
           transform="translate(580.4908,1016.624)">
          <path
             d="m 0,0 c 74.405,78.754 83.876,137.25 84.242,139.698 l -7.835,1.179 C 76.32,140.3 66.742,82.182 -5.763,5.439 Z"
             style="fill:#f4f4f4;fill-opacity:1;fill-rule:nonzero;stroke:none"
             id="path68" />
        </g>
        <g
           id="g70"
           transform="translate(573.504,930.3019)">
          <path
             d="m 0,0 c 19.323,41.575 12.539,98.676 -19.614,165.13 -24.079,49.765 -54.249,87.875 -54.55,88.254 L -80.36,248.45 C -79.179,246.967 37.245,98.932 -7.187,3.334 Z"
             style="fill:#f4f4f4;fill-opacity:1;fill-rule:nonzero;stroke:none"
             id="path72" />
        </g>
        <g
           id="g74"
           transform="translate(412.2324,931.0356)">
          <path
             d="m 0,0 c 8.901,8.77 13.644,14.386 13.859,14.644 l -6.094,5.06 C 6.777,18.512 -93.208,-99.632 -254.261,-107.831 l 0.404,-7.908 C -124.084,-109.134 -33.173,-32.675 0,0"
             style="fill:#f4f4f4;fill-opacity:1;fill-rule:nonzero;stroke:none"
             id="path76" />
        </g>
        <g
           id="g78"
           transform="translate(348.1361,742.0274)">
          <path
             d="m 0,0 c 33.343,43.882 40.486,85.607 40.607,112.883 0.134,29.689 -7.62,48.789 -7.948,49.59 l -7.326,-3.024 C 25.634,158.716 54.74,85.135 -6.312,4.791 Z"
             style="fill:#f4f4f4;fill-opacity:1;fill-rule:nonzero;stroke:none"
             id="path80" />
        </g>
        <g
           id="g82">
          <g
             id="g84" />
          <g
             id="g96">
            <g
               clip-path="url(#clipPath88)"
               opacity="0.600006"
               id="g94">
              <g
                 transform="translate(2146.8965,1026.1174)"
                 id="g92">
                <path
                   d="M 0,0 C 0,0 231.609,817.778 451.151,746.596 670.691,675.413 174.535,233 114.656,-7.197 Z"
                   style="fill:#7fc064;fill-opacity:1;fill-rule:nonzero;stroke:none"
                   id="path90" />
              </g>
            </g>
          </g>
        </g>
        <g
           id="g98"
           transform="translate(1927.094,718.5531)">
          <path
             d="M 0,0 C 0,0 515.024,891.015 799.766,739.203 1084.506,587.388 295.979,220.24 155.911,-43.992 Z"
             style="fill:#4db05b;fill-opacity:1;fill-rule:nonzero;stroke:none"
             id="path100" />
        </g>
        <g
           id="g102"
           transform="translate(2014.0929,693.1768)">
          <path
             d="M 0,0 C 93.415,184.242 257.469,350.749 378.642,457.984 510.012,574.241 620.614,647.77 621.718,648.5 l -4.555,6.88 C 616.057,654.65 504.968,580.801 373.172,464.165 251.461,356.452 86.643,189.136 -7.361,3.735 Z"
             style="fill:#f4f4f4;fill-opacity:1;fill-rule:nonzero;stroke:none"
             id="path104" />
        </g>
        <g
           id="g106"
           transform="translate(2910.9705,775.4274)">
          <path
             d="m 0,0 c -117.841,-33.731 -86.077,-213.377 -224.51,-188.767 -117.083,20.882 -127.478,30.871 -165.179,-4.945 -12.922,-12.275 -23.824,-26.493 -32.806,-41.888 -10.764,-18.454 -32.085,-45.996 -66.672,-54.436 -211.303,-51.568 -524.37,245.339 -312.809,434.219 15.276,13.64 38.401,20.023 64.084,25.796 139.338,31.225 187.455,-30.513 287.445,142.685 100.025,173.245 266.199,-54.775 360.06,-40.195 C 3.472,287.05 84.812,320.835 164.956,225.631 245.113,130.345 117.854,33.65 0,0"
             style="fill:#7fc064;fill-opacity:1;fill-rule:nonzero;stroke:none"
             id="path108" />
        </g>
        <g
           id="g110">
          <g
             id="g112" />
          <g
             id="g140">
            <g
               clip-path="url(#clipPath116)"
               opacity="0.5"
               id="g138">
              <g
                 transform="translate(2192.2234,694.0925)"
                 id="g120">
                <path
                   d="m 0,0 -4.927,6.378 c 2.809,2.173 288.461,218.089 907.444,273.293 l 0.717,-8.031 C 286.576,216.639 2.798,2.161 0,0"
                   style="fill:#f4f4f4;fill-opacity:1;fill-rule:nonzero;stroke:none"
                   id="path118" />
              </g>
              <g
                 transform="translate(2562.2117,958.8235)"
                 id="g124">
                <path
                   d="m 0,0 c -86.602,68.222 -104.831,125.699 -105.562,128.111 l 7.712,2.35 C -97.678,129.892 -79.4,72.811 4.994,6.332 Z"
                   style="fill:#f4f4f4;fill-opacity:1;fill-rule:nonzero;stroke:none"
                   id="path122" />
              </g>
              <g
                 transform="translate(2582.0725,872.9647)"
                 id="g128">
                <path
                   d="m 0,0 c -25.628,38.98 -27.284,97.47 -4.792,169.143 16.841,53.675 41.551,96.522 41.798,96.948 l 6.969,-4.044 C 43.007,260.377 -52.194,94.056 6.74,4.425 Z"
                   style="fill:#f4f4f4;fill-opacity:1;fill-rule:nonzero;stroke:none"
                   id="path126" />
              </g>
              <g
                 transform="translate(2744.3105,897.6697)"
                 id="g132">
                <path
                   d="m 0,0 c -10.265,7.503 -15.873,12.452 -16.129,12.68 l 5.383,5.999 c 1.172,-1.053 119.379,-105.125 282.724,-89.447 l 0.769,-8.02 C 141.126,-91.423 38.247,-27.963 0,0"
                   style="fill:#f4f4f4;fill-opacity:1;fill-rule:nonzero;stroke:none"
                   id="path130" />
              </g>
              <g
                 transform="translate(2836.9197,716.9276)"
                 id="g136">
                <path
                   d="m 0,0 c -40.086,39.218 -53.478,80.16 -57.653,107.598 -4.545,29.868 0.422,50.248 0.632,51.104 l 7.823,-1.957 C -49.391,155.963 -67.756,77.565 5.643,5.76 Z"
                   style="fill:#f4f4f4;fill-opacity:1;fill-rule:nonzero;stroke:none"
                   id="path134" />
              </g>
            </g>
          </g>
        </g>
        <g
           id="g142"
           transform="translate(3056.3774,1162.8176)">
          <path
             d="m 0,0 c 39.045,6.7 52.787,-3.712 55.412,-19.017 2.625,-15.302 -6.86,-29.7 -45.902,-36.4 -71.122,-12.203 -110.251,9.608 -110.251,9.608 0,0 28.583,33.427 100.741,45.809"
             style="fill:#7fc064;fill-opacity:1;fill-rule:nonzero;stroke:none"
             id="path144" />
        </g>
        <g
           id="g146"
           transform="translate(2395.5459,1855.8842)">
          <path
             d="M 0,0 C 8.495,38.693 23.318,47.5 38.482,44.172 53.646,40.84 63.414,26.631 54.916,-12.062 39.441,-82.542 4.5,-110.577 4.5,-110.577 4.5,-110.577 -15.703,-71.509 0,0"
             style="fill:#7fc064;fill-opacity:1;fill-rule:nonzero;stroke:none"
             id="path148" />
        </g>
        <g
           id="g150"
           transform="translate(2339.4788,430.4036)">
          <path
             d="m 0,0 -1795.237,19.02 c -38.431,0.407 -69.356,29.285 -69.356,64.768 v 1011.603 c 0,35.387 30.761,64.224 69.086,64.765 l 1772.08,25.054 c 38.608,0.546 70.438,-27.815 71.219,-63.456 L 70.951,66.082 C 71.754,29.511 39.618,-0.418 0,0"
             style="fill:#00613e;fill-opacity:1;fill-rule:nonzero;stroke:none"
             id="path152" />
        </g>
        <g
           id="g154"
           transform="translate(2297.9612,531.1566)">
          <path
             d="m 0,0 h -1735.179 c -10.124,0 -18.331,8.207 -18.331,18.331 v 955.436 c 0,10.124 8.207,18.331 18.331,18.331 H 10e-4 c 10.124,0 18.331,-8.207 18.331,-18.331 V 18.331 C 18.332,8.207 10.124,0 0,0"
             style="fill:#f4f4f4;fill-opacity:1;fill-rule:nonzero;stroke:none"
             id="path156" />
        </g>
        <g
           id="g158"
           transform="translate(1901.8733,1236.0851)">
          <path
             d="m 0,0 c 0,0 -7.257,-47.342 -26.57,-71.473 -12.729,-15.906 -47.844,-47.41 -22.872,-57.909 19.945,-8.382 58.351,28.943 70.817,38.227 12.467,9.286 31.267,26.862 27.098,41.837 -8.639,31.026 -5.791,70.029 -5.791,70.029 z"
             style="fill:#561c17;fill-opacity:1;fill-rule:nonzero;stroke:none"
             id="path160" />
        </g>
        <g
           id="g162"
           transform="translate(1998.3058,1272.8013)">
          <path
             d="m 0,0 c 0,0 9.655,-46.911 -0.061,-76.25 -6.406,-19.341 -28.375,-61.089 -1.313,-62.25 21.614,-0.926 44.648,47.425 53.108,60.465 8.461,13.041 19.977,36.055 10.861,48.648 C 43.709,-3.3 32.818,34.259 32.818,34.259 Z"
             style="fill:#561c17;fill-opacity:1;fill-rule:nonzero;stroke:none"
             id="path164" />
        </g>
        <g
           id="g166"
           transform="translate(1984.7727,1239.6504)">
          <path
             d="m 0,0 c -258.886,172.688 -246.101,323.973 -210.222,383.135 41.665,68.709 107.637,123.039 208.746,147.274 26.956,6.462 52.617,10.199 74.055,12.35 31.046,3.112 57.789,-21.682 56.968,-52.876 l -2.32,-88.104 0.195,-0.004 C 84.229,402.68 -46.818,389.508 -81.155,319.676 -88.291,305.16 85.975,100.48 79.47,63.755 72.114,22.205 25.314,-16.885 0,0"
             style="fill:#008059;fill-opacity:1;fill-rule:nonzero;stroke:none"
             id="path168" />
        </g>
        <g
           id="g170"
           transform="translate(1884.392,1213.7871)">
          <path
             d="m 0,0 c -29.77,-0.148 -53.515,24.859 -51.76,54.58 3.904,66.075 16.179,178.529 54.657,263.495 21.822,48.186 56.515,91.999 103.119,130.222 35.141,28.821 77.195,54.579 124.998,76.559 79.51,36.561 136.776,31.462 136.776,31.462 l 43.453,-64.077 C 410.668,492.125 423.43,427.607 331.567,370.078 280.885,338.337 178.993,318.939 137.076,236.905 107.152,178.343 95.717,100.693 91.915,46.43 90.094,20.474 68.536,0.342 42.517,0.212 Z"
             style="fill:#008059;fill-opacity:1;fill-rule:nonzero;stroke:none"
             id="path172" />
        </g>
        <g
           id="g174"
           transform="translate(1943.5177,1997.2148)">
          <path
             d="m 0,0 c 0,0 -53.396,-82.152 -72.526,-203.934 -12.658,-80.588 133.997,13.229 133.997,13.229 l 6.523,168.347 z"
             style="fill:#ffa076;fill-opacity:1;fill-rule:nonzero;stroke:none"
             id="path176" />
        </g>
        <g
           id="g178"
           transform="translate(2210.4465,2043.6476)">
          <path
             d="m 0,0 c 0,0 -40.672,69.521 -134.429,48.186 -93.755,-21.334 -131.954,-117.094 -138.67,-347.056 0,0 56.305,-99.635 312.437,-80.211 28.379,2.152 69.046,5.904 55.178,51.921 C 68.735,-241.622 43.761,-71.008 0,0"
             style="fill:#ffc655;fill-opacity:1;fill-rule:nonzero;stroke:none"
             id="path180" />
        </g>
        <g
           id="g182"
           transform="translate(2313.5837,2023.3458)">
          <path
             d="m 0,0 -96.439,-18.126 c 0,0 -168.634,-49.874 -215.843,-50.267 -47.21,-0.396 -66.746,34.133 -66.746,34.133 0,0 38.074,64.63 117.876,95.122 7.495,2.877 15.35,5.435 23.583,7.621 13.823,3.657 27.871,6.862 41.934,7.022 C -36.446,77.331 0,0 0,0"
             style="fill:#ffc655;fill-opacity:1;fill-rule:nonzero;stroke:none"
             id="path184" />
        </g>
        <g
           id="g186"
           transform="translate(2313.5837,2023.3458)">
          <path
             d="m 0,0 c 2.086,-7.603 -18.129,-20.289 -45.152,-28.335 -27.023,-8.046 -50.62,-8.406 -52.704,-0.804 -2.088,7.603 18.128,20.289 45.149,28.335 C -25.682,7.243 -2.085,7.603 0,0"
             style="fill:#561c17;fill-opacity:1;fill-rule:nonzero;stroke:none"
             id="path188" />
        </g>
        <g
           id="g190"
           transform="translate(2117.7825,2098.8379)">
          <path
             d="m 0,0 c -10.302,-0.838 -20.276,3.831 -26.065,12.394 l -18.139,26.83 -5.264,7.788 -30.95,45.788 13.547,-50.974 8.134,-30.596 2.32,-8.721 c 1.893,-7.116 -1.937,-14.459 -8.813,-17.093 l -0.121,-0.046 c -2.639,-6.939 -5.516,-20.574 11.205,-22.592 19.649,-2.375 46.843,17.906 54.312,37.235 C 0.11,0.009 0.055,0.004 0,0"
             style="fill:#ffa076;fill-opacity:1;fill-rule:nonzero;stroke:none"
             id="path192" />
        </g>
        <g
           id="g194"
           transform="translate(2094.1611,2211.2488)">
          <path
             d="m 0,0 c 0,0 -0.388,-8.863 7.793,-25.319 11.968,-24.078 -15.081,-40.219 -23.897,-34.374 -1.09,0.722 -8.094,44.213 -8.094,44.213 l 8.24,7.286 z"
             style="fill:#561c17;fill-opacity:1;fill-rule:nonzero;stroke:none"
             id="path196" />
        </g>
        <g
           id="g198"
           transform="translate(2073.4702,2138.9277)">
          <path
             d="M 0,0 C 0.044,-0.288 0.081,-0.576 0.108,-0.866 2.044,-17.76 -14.298,-28.931 -14.298,-28.931 l -0.126,0.071 -8.135,30.595 C -17.49,4.767 -10.12,8.293 -5.156,6.921 -2.56,6.205 -0.623,4.151 0,0"
             style="fill:#561c17;fill-opacity:1;fill-rule:nonzero;stroke:none"
             id="path200" />
        </g>
        <g
           id="g202"
           transform="translate(1988.0328,2173.6958)">
          <path
             d="M 0,0 C -6.29,33.086 10.352,64.039 37.169,69.137 63.987,74.236 90.825,51.547 97.114,18.461 103.404,-14.625 86.762,-45.579 59.945,-50.677 33.128,-55.775 6.288,-33.085 0,0"
             style="fill:#ffa076;fill-opacity:1;fill-rule:nonzero;stroke:none"
             id="path204" />
        </g>
        <g
           id="g206"
           transform="translate(2008.6152,2225.2542)">
          <path
             d="M 0,0 C 1.699,-1.584 -0.085,-33.855 58.408,-30.361 116.901,-26.867 69.435,35.883 27.011,29.441 -34.247,20.138 -35.326,-22.444 -26.684,-36.051 -18.041,-49.66 0,0 0,0"
             style="fill:#561c17;fill-opacity:1;fill-rule:nonzero;stroke:none"
             id="path208" />
        </g>
        <g
           id="g210"
           transform="translate(2089.4116,2279.8669)">
          <path
             d="m 0,0 c 0,0 -22.385,-22.032 0.412,-34.429 22.797,-12.398 78.393,-9.15 68.776,-39.212 -9.615,-30.063 -14.763,-72.87 12.828,-72.853 27.594,0.017 43.978,5.222 58.857,-13.909 14.877,-19.132 60.719,3.177 51.976,27.658 -8.742,24.481 28.466,54.56 6.297,74.397 C 176.98,-38.51 129.74,-26.576 113.135,1.638 96.53,29.853 18.22,17.058 0,0"
             style="fill:#561c17;fill-opacity:1;fill-rule:nonzero;stroke:none"
             id="path212" />
        </g>
        <g
           id="g214"
           transform="translate(2058.8643,2203.5088)">
          <path
             d="m 0,0 c 0,0 28.006,-20.163 24.696,-46.846 0,0 10.721,17.359 9.972,22.935 -0.751,5.577 -8.136,24.825 -8.136,24.825 z"
             style="fill:#561c17;fill-opacity:1;fill-rule:nonzero;stroke:none"
             id="path216" />
        </g>
        <g
           id="g218"
           transform="translate(2080.3701,2181.8867)">
          <path
             d="m 0,0 c -4.501,-6.297 -12.091,-8.297 -16.948,-4.468 -4.86,3.83 -5.148,12.04 -0.647,18.338 4.501,6.297 12.09,8.297 16.948,4.468 C 4.212,14.508 4.502,6.298 0,0"
             style="fill:#ffa076;fill-opacity:1;fill-rule:nonzero;stroke:none"
             id="path220" />
        </g>
        <g
           id="g222"
           transform="translate(2229.303,2119.2029)">
          <path
             d="m 0,0 c -7.184,27.029 -23.115,28.247 -39.981,29.536 -6.689,0.512 -13.608,1.041 -20.207,3.155 -3.139,1.006 -5.337,2.751 -6.533,5.184 -2.995,6.089 0.477,15.688 4.496,26.8 5.856,16.188 12.49,34.536 2.588,48.779 -19.154,27.548 -48.204,28.785 -48.495,28.794 -16.888,-1.066 -25.641,0.826 -26.648,5.796 -1.015,5.016 6.889,10.597 9.806,11.618 23.641,8.27 50.978,11.607 90.581,-19.692 31.231,-24.684 29.086,-38.574 26.371,-56.16 -0.6,-3.882 -1.218,-7.895 -1.503,-12.256 -0.226,-3.453 0.497,-6.011 2.212,-7.818 3.815,-4.028 12.327,-3.924 20.565,-3.83 10.647,0.126 21.659,0.255 24.626,-8.209 2.32,-6.62 -0.319,-14.49 -2.871,-22.101 C 32.391,21.797 29.921,14.431 32.962,9.277 34.947,5.912 39.183,3.677 45.907,2.446 L 45.544,0.448 c -7.341,1.343 -12.03,3.893 -14.331,7.797 -3.514,5.953 -0.901,13.745 1.868,21.997 2.442,7.286 4.969,14.82 2.878,20.784 C 33.476,58.113 23.649,58 13.277,57.874 4.605,57.771 -4.36,57.667 -8.788,62.338 c -2.096,2.211 -3.026,5.355 -2.765,9.348 0.291,4.45 0.918,8.508 1.524,12.434 2.615,16.932 4.68,30.306 -25.625,54.256 -38.83,30.69 -65.554,27.448 -88.649,19.368 -2.808,-0.982 -9.166,-5.944 -8.485,-9.296 0.341,-1.699 3.418,-5.51 24.625,-4.171 0.395,-0.008 30.437,-1.248 50.194,-29.663 10.502,-15.106 3.378,-34.803 -2.345,-50.63 -3.862,-10.677 -7.196,-19.899 -4.585,-25.212 0.957,-1.948 2.701,-3.303 5.332,-4.146 6.372,-2.042 13.169,-2.562 19.74,-3.064 17.607,-1.346 34.236,-2.617 41.79,-31.039 z"
             style="fill:#ffffff;fill-opacity:1;fill-rule:nonzero;stroke:none"
             id="path224" />
        </g>
        <g
           id="g226"
           transform="translate(2057.2725,2212.8218)">
          <path
             d="m 0,0 c -18.142,0 -29.804,12.495 -29.934,12.636 l 1.365,1.251 C -28.43,13.736 -14.505,-1.118 6.375,2.388 L 6.682,0.563 C 4.371,0.174 2.14,0 0,0"
             style="fill:#ffffff;fill-opacity:1;fill-rule:nonzero;stroke:none"
             id="path228" />
        </g>
        <g
           id="g230"
           transform="translate(1993.3639,2183.0613)">
          <path
             d="m 0,0 c -0.968,-0.184 -1.917,-0.456 -2.839,-0.817 -9.797,-3.839 -14.11,-16.531 -9.61,-28.292 2.422,-6.334 7.029,-11.388 12.64,-13.867 4.406,-1.947 9.117,-2.121 13.273,-0.496 9.798,3.839 14.11,16.53 9.611,28.292 -2.422,6.335 -7.03,11.389 -12.642,13.868 C 7.007,0.203 3.391,0.645 0,0 m 10.847,-45.457 c -3.628,-0.689 -7.485,-0.22 -11.137,1.394 -5.899,2.606 -10.734,7.902 -13.269,14.53 -4.73,12.368 -0.116,25.746 10.285,29.822 4.452,1.742 9.49,1.562 14.188,-0.515 5.899,-2.606 10.735,-7.901 13.27,-14.529 4.73,-12.369 0.116,-25.746 -10.285,-29.823 -0.993,-0.388 -2.013,-0.68 -3.052,-0.879"
             style="fill:#6f4975;fill-opacity:1;fill-rule:nonzero;stroke:none"
             id="path232" />
        </g>
        <g
           id="g234"
           transform="translate(2039.0952,2198.6067)">
          <path
             d="m 0,0 c -0.967,-0.184 -1.917,-0.457 -2.837,-0.818 -9.798,-3.838 -14.109,-16.531 -9.611,-28.292 2.421,-6.334 7.03,-11.388 12.639,-13.868 4.408,-1.945 9.124,-2.122 13.275,-0.493 9.797,3.838 14.108,16.529 9.61,28.29 -2.423,6.335 -7.029,11.39 -12.639,13.869 C 7.009,0.202 3.393,0.645 0,0 m 10.845,-45.456 c -3.626,-0.691 -7.481,-0.221 -11.132,1.393 -5.899,2.605 -10.737,7.901 -13.27,14.529 -4.732,12.368 -0.118,25.747 10.286,29.822 4.451,1.743 9.489,1.562 14.185,-0.514 5.899,-2.606 10.737,-7.902 13.27,-14.53 4.732,-12.368 0.118,-25.745 -10.286,-29.821 -0.991,-0.389 -2.013,-0.682 -3.053,-0.879"
             style="fill:#6f4975;fill-opacity:1;fill-rule:nonzero;stroke:none"
             id="path236" />
        </g>
        <g
           id="g238"
           transform="translate(2012.2188,2164.9917)">
          <path
             d="M 0,0 C -0.185,-0.035 -0.38,0.017 -0.525,0.155 -0.76,0.382 -0.769,0.756 -0.543,0.993 -0.316,1.229 5.114,6.775 16.349,7.215 16.677,7.228 16.953,6.972 16.965,6.644 16.978,6.317 16.727,6.038 16.395,6.029 5.665,5.61 0.369,0.226 0.316,0.172 0.227,0.079 0.116,0.022 0,0"
             style="fill:#6f4975;fill-opacity:1;fill-rule:nonzero;stroke:none"
             id="path240" />
        </g>
        <g
           id="g242"
           transform="translate(2017.1453,2139.0635)">
          <path
             d="m 0,0 c 0,0 16.66,2.771 32.139,11.75 0,0 4.486,-16.086 -13.27,-20.597 C 8.542,-11.469 0,0 0,0"
             style="fill:#db6b49;fill-opacity:1;fill-rule:nonzero;stroke:none"
             id="path244" />
        </g>
        <g
           id="g246"
           transform="translate(2017.1453,2139.0635)">
          <path
             d="M 0,0 C 0,0 4.647,-2.567 14.003,-0.746 23.36,1.074 32.139,11.75 32.139,11.75 32.139,11.75 13.196,2.459 0,0"
             style="fill:#ffffff;fill-opacity:1;fill-rule:nonzero;stroke:none"
             id="path248" />
        </g>
        <g
           id="g250"
           transform="translate(2032.0029,2181.4551)">
          <path
             d="m 0,0 c -0.34,0.027 -0.664,0.207 -0.862,0.517 -0.333,0.522 -0.182,1.215 0.34,1.551 0.307,0.197 7.014,5.433 14.905,-0.47 0.496,-0.373 0.621,-1.065 0.256,-1.57 C 14.278,-0.476 13.643,-0.474 13.072,-0.229 7.35,2.215 0.946,0.334 0.691,0.172 0.476,0.037 0.235,-0.018 0,0"
             style="fill:#060633;fill-opacity:1;fill-rule:nonzero;stroke:none"
             id="path252" />
        </g>
        <g
           id="g254"
           transform="translate(2043.0498,2170.979)">
          <path
             d="m 0,0 c 0.584,-2.618 -0.482,-5.085 -2.383,-5.51 -1.9,-0.424 -3.913,1.355 -4.499,3.973 -0.584,2.619 0.483,5.086 2.383,5.51 C -2.599,4.397 -0.585,2.618 0,0"
             style="fill:#060633;fill-opacity:1;fill-rule:nonzero;stroke:none"
             id="path256" />
        </g>
        <g
           id="g258"
           transform="translate(1993.6736,2168.2041)">
          <path
             d="m 0,0 c -0.325,-0.105 -0.693,-0.062 -0.992,0.149 -0.508,0.356 -0.633,1.054 -0.279,1.562 0.21,0.3 4.417,7.697 13.96,5.244 0.603,-0.154 0.98,-0.748 0.838,-1.354 C 13.383,4.998 12.794,4.758 12.173,4.765 5.952,4.847 0.749,0.669 0.573,0.422 0.427,0.215 0.223,0.072 0,0"
             style="fill:#060633;fill-opacity:1;fill-rule:nonzero;stroke:none"
             id="path260" />
        </g>
        <g
           id="g262"
           transform="translate(2007.8781,2162.7244)">
          <path
             d="M 0,0 C 1.539,-2.198 1.491,-4.885 -0.104,-6.001 -1.699,-7.116 -4.24,-6.239 -5.777,-4.041 -7.315,-1.843 -7.268,0.844 -5.673,1.96 -4.078,3.076 -1.538,2.198 0,0"
             style="fill:#060633;fill-opacity:1;fill-rule:nonzero;stroke:none"
             id="path264" />
        </g>
        <g
           id="g266"
           transform="translate(2296.928,1809.1925)">
          <path
             d="m 0,0 c -41.189,-64.542 -122.784,-105.739 -208.521,-103.038 l 9.136,68.788 c 66.48,12.118 117.447,55.384 126.94,91.854 11.927,45.826 7.836,90.468 2.137,124.019 -0.542,3.18 0.714,6.382 3.275,8.347 8.501,6.511 30.524,19.747 69.88,20.526 3.502,0.07 6.603,-2.279 7.501,-5.664 C 26.812,142.817 36.756,57.592 0,0"
             style="fill:#ffa076;fill-opacity:1;fill-rule:nonzero;stroke:none"
             id="path268" />
        </g>
        <g
           id="g270">
          <g
             id="g272" />
          <g
             id="g284">
            <g
               clip-path="url(#clipPath276)"
               opacity="0.300003"
               id="g282">
              <g
                 transform="translate(2259.7129,1821.8146)"
                 id="g280">
                <path
                   d="m 0,0 c -1.215,0 -2.48,-0.258 -3.764,-0.777 -3.922,-1.584 -7.469,-5.386 -9.491,-10.177 -3.421,-8.095 -1.636,-16.631 3.977,-19.029 2.065,-0.882 4.442,-0.828 6.872,0.151 3.921,1.585 7.47,5.39 9.494,10.177 3.418,8.097 1.633,16.634 -3.981,19.031 C 2.132,-0.208 1.087,0 0,0 m -6.171,-33.78 c -1.507,0 -2.971,0.295 -4.351,0.885 -7.213,3.08 -9.749,13.477 -5.651,23.175 2.342,5.547 6.539,9.987 11.225,11.879 3.229,1.307 6.444,1.35 9.301,0.13 7.213,-3.081 9.748,-13.476 5.653,-23.177 -2.345,-5.546 -6.542,-9.987 -11.227,-11.88 -1.668,-0.673 -3.335,-1.012 -4.95,-1.012"
                   style="fill:#f47c53;fill-opacity:1;fill-rule:nonzero;stroke:none"
                   id="path278" />
              </g>
            </g>
          </g>
        </g>
        <g
           id="g286"
           transform="translate(2097.5435,1774.9427)">
          <path
             d="m 0,0 c 0,0 -61.577,19.583 -81.151,10.32 -19.572,-9.261 -37.572,-35.89 -24.219,-32.725 13.351,3.164 29.294,11.921 29.294,11.921 0,0 -33.183,-20.312 -25.071,-26.015 8.112,-5.702 36.8,12.241 36.8,12.241 0,0 -37.56,-27.316 -28.154,-30.222 9.408,-2.906 37.794,18.046 37.794,18.046 0,0 -33.931,-26.811 -22.926,-29.93 11.006,-3.12 27.896,22.336 36.008,16.632 8.111,-5.701 28.802,-31.893 47.406,-11.283 z"
             style="fill:#ffa076;fill-opacity:1;fill-rule:nonzero;stroke:none"
             id="path288" />
        </g>
        <g
           id="g290"
           transform="translate(2021.9819,1763.8473)">
          <path
             d="M 0,0 -1.027,1.224 C -0.664,1.529 7.945,8.672 14.795,6.72 L 14.36,5.183 C 8.31,6.897 0.083,0.069 0,0"
             style="fill:#f47c53;fill-opacity:1;fill-rule:nonzero;stroke:none"
             id="path292" />
        </g>
        <g
           id="g294"
           transform="translate(2033.7214,1750.0808)">
          <path
             d="m 0,0 -1.05,1.206 c 0.346,0.3 8.562,7.35 18.608,6.569 L 17.431,6.181 C 8.087,6.903 0.081,0.07 0,0"
             style="fill:#f47c53;fill-opacity:1;fill-rule:nonzero;stroke:none"
             id="path296" />
        </g>
        <g
           id="g298"
           transform="translate(2043.3505,1737.8971)">
          <path
             d="M 0,0 -1.029,1.224 C -0.6,1.584 9.568,10.039 16.692,7.346 L 16.128,5.851 C 9.884,8.208 0.098,0.082 0,0"
             style="fill:#f47c53;fill-opacity:1;fill-rule:nonzero;stroke:none"
             id="path300" />
        </g>
        <g
           id="g302"
           transform="translate(2021.9055,1679.1364)">
          <path
             d="m 0,0 h -197.675 c -4.139,0 -7.813,2.633 -9.119,6.532 l -41.079,122.68 c -2.069,6.178 2.561,12.553 9.119,12.553 h 190.097 c 8.663,0 16.353,-5.509 19.087,-13.673 L 9.118,12.553 C 11.187,6.376 6.555,0 0,0"
             style="fill:#561c17;fill-opacity:1;fill-rule:nonzero;stroke:none"
             id="path304" />
        </g>
        <g
           id="g306"
           transform="translate(2009.499,1679.1364)">
          <path
             d="m 0,0 h -197.676 c -4.139,0 -7.812,2.633 -9.117,6.532 l -41.081,122.68 c -2.068,6.178 2.564,12.553 9.121,12.553 h 190.097 c 8.661,0 16.352,-5.509 19.085,-13.673 L 9.117,12.553 C 11.187,6.376 6.555,0 0,0"
             style="fill:#561c17;fill-opacity:1;fill-rule:nonzero;stroke:none"
             id="path308" />
        </g>
        <g
           id="g310"
           transform="translate(1870.9918,1754.0353)">
          <path
             d="m 0,0 c 0,4.657 5.374,6.555 10.064,6.555 4.689,0 12.347,-5.111 12.3,-11.637 -0.054,-7.044 -5.557,-7.96 -10.247,-7.96 C 7.427,-13.042 0,-5.931 0,0"
             style="fill:#b9efd4;fill-opacity:1;fill-rule:nonzero;stroke:none"
             id="path312" />
        </g>
        <g
           id="g314"
           transform="translate(2087.719,1696.4724)">
          <path
             d="M 0,0 H -275.995 V -17.336 H 2.923 c 1.67,0 3.023,1.353 3.023,3.023 v 8.367 C 5.946,-2.662 3.284,0 0,0"
             style="fill:#561c17;fill-opacity:1;fill-rule:nonzero;stroke:none"
             id="path316" />
        </g>
        <g
           id="g318"
           transform="translate(1995.4425,1758.8794)">
          <path
             d="m 0,0 c -0.096,0.368 -9.795,36.736 -16.076,48.038 -6.188,11.138 -13.815,13.345 -13.89,13.365 l 0.339,1.237 c 0.333,-0.09 8.225,-2.373 14.675,-13.978 C -8.596,37.22 0.842,1.832 1.242,0.331 Z"
             style="fill:#008059;fill-opacity:1;fill-rule:nonzero;stroke:none"
             id="path320" />
        </g>
        <g
           id="g322"
           transform="translate(2024.6572,1695.8298)">
          <path
             d="m 0,0 c -7.327,0 -9.153,3.243 -9.227,3.381 l -15.449,46.111 1.218,0.406 L -8.051,3.889 -8.052,3.89 C -8.035,3.89 -6.381,1.285 0,1.285 Z"
             style="fill:#008059;fill-opacity:1;fill-rule:nonzero;stroke:none"
             id="path324" />
        </g>
        <g
           id="g326"
           transform="translate(1842.4623,1359.501)">
          <path
             d="m 0,0 -1.595,0.107 c 0.04,0.589 4.167,59.728 22.445,126.595 16.889,61.787 49.663,143.003 109.892,179.051 l 0.821,-1.374 C 71.789,268.608 39.202,187.784 22.391,126.281 4.156,59.565 0.04,0.588 0,0"
             style="fill:#561c17;fill-opacity:1;fill-rule:nonzero;stroke:none"
             id="path328" />
        </g>
        <g
           id="g330"
           transform="translate(1974.4143,1247.1914)">
          <path
             d="m 0,0 -1.599,0.01 c 0.651,92.01 30.75,163.035 31.052,163.742 l 1.47,-0.632 C 30.619,162.417 0.65,91.67 0,0"
             style="fill:#561c17;fill-opacity:1;fill-rule:nonzero;stroke:none"
             id="path332" />
        </g>
        <g
           id="g334"
           transform="translate(2617.311,1242.9423)">
          <path
             d="m 0,0 c 0,0 -47.171,2.177 -54.681,74.55 -7.721,74.39 77.602,0 77.602,0 z"
             style="fill:#ffa076;fill-opacity:1;fill-rule:nonzero;stroke:none"
             id="path336" />
        </g>
        <g
           id="g338"
           transform="translate(2665.4358,1480.2336)">
          <path
             d="m 0,0 c -2.871,-1.132 -50.618,-14.068 -71.76,-86.078 -21.141,-72.009 49.833,-15.237 49.833,-15.237 z"
             style="fill:#ffa076;fill-opacity:1;fill-rule:nonzero;stroke:none"
             id="path340" />
        </g>
        <g
           id="g342"
           transform="translate(2728.3188,488.1325)">
          <path
             d="m 0,0 c 0,0 -0.647,-25.88 -18.16,-33.18 -17.512,-7.3 -68.251,-13.888 -49.291,-30.527 10.879,-9.548 62.149,-3.379 76.624,-3.379 14.476,0.001 28.068,-6.306 38.823,3.382 11.835,10.659 -0.001,63.706 -0.001,63.706 0,0 -12.491,-6.507 -23.725,-6.217 C 8.082,-5.795 0,0 0,0"
             style="fill:#561c17;fill-opacity:1;fill-rule:nonzero;stroke:none"
             id="path344" />
        </g>
        <g
           id="g346"
           transform="translate(2929.4285,488.1389)">
          <path
             d="m 0,0 c 0,0 -0.647,-25.882 -18.159,-33.181 -17.512,-7.3 -68.252,-13.889 -49.292,-30.528 10.88,-9.546 62.15,-3.377 76.627,-3.377 14.476,0 28.067,-6.308 38.823,3.38 11.833,10.659 -0.003,63.707 -0.003,63.707 0,0 -12.49,-6.507 -23.723,-6.216 C 8.083,-5.795 0,0 0,0"
             style="fill:#561c17;fill-opacity:1;fill-rule:nonzero;stroke:none"
             id="path348" />
        </g>
        <g
           id="g350"
           transform="translate(2598.1619,1197.6016)">
          <path
             d="m 0,0 c 0,0 -3.239,-108.329 31.339,-316.145 24.962,-150.03 54.43,-301.207 68.889,-373.686 5.169,-25.926 26.976,-44.881 52.816,-45.918 l 13.887,-0.558 c 27.942,-1.121 50.619,22.882 48.578,51.416 l -35.079,490.343 -8.647,161.389 z"
             style="fill:#8a4d27;fill-opacity:1;fill-rule:nonzero;stroke:none"
             id="path352" />
        </g>
        <g
           id="g354"
           transform="translate(2914.4487,1102.2695)">
          <path
             d="m 0,0 c -1.595,-13.186 -76.149,-11.584 -167.431,-0.03 -91.281,11.553 -162.334,31.328 -160.739,44.513 1.595,13.185 75.232,14.788 166.513,3.234 C -70.375,36.162 1.593,13.183 0,0"
             style="fill:#561c17;fill-opacity:1;fill-rule:nonzero;stroke:none"
             id="path356" />
        </g>
        <g
           id="g358"
           transform="translate(2702.9609,1120.2269)">
          <path
             d="m 0,0 194.882,-626.025 c 8.157,-26.203 31.749,-44.159 58.624,-44.618 l 11.712,-0.2 c 27.658,-0.473 48.799,25.1 43.757,52.927 l -106.607,588.23 c -1.547,6.991 -6.709,12.551 -13.452,14.496 C 152.364,-4.649 -3.587,25.891 0,0"
             style="fill:#8a4d27;fill-opacity:1;fill-rule:nonzero;stroke:none"
             id="path360" />
        </g>
        <g
           id="g362"
           transform="translate(2883.9714,1462.6946)">
          <path
             d="m 0,0 c 0,0 -25.93,72.953 -118.3,69.635 -92.368,-3.318 -162.113,-124.698 -179.393,-385.577 0,0 151.254,33.168 328.44,-44.208 0,0 9.823,253.82 -30.747,360.15"
             style="fill:#008059;fill-opacity:1;fill-rule:nonzero;stroke:none"
             id="path364" />
        </g>
        <g
           id="g366"
           transform="translate(2948.8386,1467.0868)">
          <path
             d="m 0,0 -65.438,-41.885 c 0,0 -168.206,-16.828 -212.858,-8.727 -44.654,8.101 -51.601,40.933 -51.601,40.933 0,0 42.477,58.265 123.312,72.735 7.595,1.37 15.247,1.596 23.415,2.182 13.708,0.972 27.42,0.554 40.86,-0.896 C -62.448,55.724 0,0 0,0"
             style="fill:#008059;fill-opacity:1;fill-rule:nonzero;stroke:none"
             id="path368" />
        </g>
        <g
           id="g370"
           transform="translate(2790.0603,840.4182)">
          <path
             d="m 0,0 -41.91,127.409 c -9.424,28.65 -28.809,52.561 -54.58,67.327 l 1.628,2.843 c 26.477,-15.169 46.388,-39.726 56.066,-69.146 L 3.114,1.024 Z"
             style="fill:#561c17;fill-opacity:1;fill-rule:nonzero;stroke:none"
             id="path372" />
        </g>
        <g
           id="g374"
           transform="translate(2702.3274,1548.576)">
          <path
             d="m 0,0 c -0.507,0.121 -12.42,3.026 -15.961,11.56 -1.87,4.502 -1.021,9.703 2.521,15.459 1.578,2.564 3.033,4.883 4.365,7.008 9.252,14.749 12.367,19.72 9.946,31.26 l 1.051,0.221 C 4.434,53.543 1.003,48.073 -8.165,33.455 -9.496,31.335 -10.949,29.018 -12.524,26.457 -15.874,21.012 -16.698,16.14 -14.972,11.975 -11.642,3.95 0.128,1.076 0.247,1.048 Z"
             style="fill:#561c17;fill-opacity:1;fill-rule:nonzero;stroke:none"
             id="path376" />
        </g>
        <g
           id="g378"
           transform="translate(2703.7224,1613.9744)">
          <path
             d="m 0,0 c 0,0 4.093,-18.525 -8.181,-37.916 -12.273,-19.39 1.086,-33.56 17.712,-26.101 16.628,7.457 22.965,-13.742 44.222,-2.024 C 75.007,-54.323 0,0 0,0"
             style="fill:#561c17;fill-opacity:1;fill-rule:nonzero;stroke:none"
             id="path380" />
        </g>
        <g
           id="g382"
           transform="translate(2801.9604,1532.0609)">
          <path
             d="m 0,0 c -9.186,0.983 -17.162,6.747 -20.816,15.23 l -11.448,26.585 -3.321,7.717 -19.533,45.367 3.385,-47.015 2.038,-28.22 0.58,-8.046 c 0.473,-6.563 -4.115,-12.37 -10.592,-13.536 l -0.113,-0.019 c -3.475,-5.653 -8.277,-17.145 6.068,-21.707 16.854,-5.365 44.115,7.904 53.9,23.627 C 0.098,-0.011 0.049,-0.006 0,0"
             style="fill:#ffa076;fill-opacity:1;fill-rule:nonzero;stroke:none"
             id="path384" />
        </g>
        <g
           id="g386"
           transform="translate(2769.7434,1574.6531)">
          <path
             d="m 0,0 c -0.006,-0.258 -0.023,-0.517 -0.047,-0.777 -1.12,-15.157 -17.334,-22.235 -17.334,-22.235 l -0.097,0.084 -2.038,28.219 C -14.557,7.108 -7.498,8.973 -3.368,6.94 -1.209,5.877 0.148,3.751 0,0"
             style="fill:#561c17;fill-opacity:1;fill-rule:nonzero;stroke:none"
             id="path388" />
        </g>
        <g
           id="g390"
           transform="translate(2700.5342,1619.4414)">
          <path
             d="M 0,0 C 0,30.099 19.777,54.498 44.175,54.498 68.57,54.498 88.348,30.099 88.348,0 88.348,-30.099 68.57,-54.498 44.175,-54.498 19.777,-54.498 0,-30.099 0,0"
             style="fill:#ffa076;fill-opacity:1;fill-rule:nonzero;stroke:none"
             id="path392" />
        </g>
        <g
           id="g394"
           transform="translate(2782.9727,1611.2211)">
          <path
             d="m 0,0 c -5.001,-4.779 -11.999,-5.267 -15.625,-1.094 -3.627,4.174 -2.512,11.43 2.492,16.21 5.004,4.777 11.999,5.267 15.627,1.092 C 6.122,12.034 5.006,4.779 0,0"
             style="fill:#ffa076;fill-opacity:1;fill-rule:nonzero;stroke:none"
             id="path396" />
        </g>
        <g
           id="g398"
           transform="translate(2720.9182,1584.1749)">
          <path
             d="m 0,0 c 0,0 15.09,-0.348 30.179,4.953 0,0 1.253,-14.873 -15.089,-15.87 C 5.586,-11.495 0,0 0,0"
             style="fill:#db6b49;fill-opacity:1;fill-rule:nonzero;stroke:none"
             id="path400" />
        </g>
        <g
           id="g402"
           transform="translate(2720.9182,1584.1749)">
          <path
             d="M 0,0 C 0,0 3.651,-3.029 12.172,-2.993 20.691,-2.956 30.179,4.953 30.179,4.953 30.179,4.953 11.998,-0.044 0,0"
             style="fill:#ffffff;fill-opacity:1;fill-rule:nonzero;stroke:none"
             id="path404" />
        </g>
        <g
           id="g406"
           transform="translate(2740.4341,1618.9163)">
          <path
             d="M 0,0 C -0.293,0.079 -0.546,0.292 -0.668,0.597 -0.875,1.109 -0.626,1.694 -0.112,1.902 0.192,2.022 6.953,5.501 12.896,-1 13.271,-1.409 13.263,-2.037 12.86,-2.421 12.457,-2.802 11.9,-2.695 11.438,-2.385 6.825,0.717 0.888,0.134 0.636,0.035 0.426,-0.049 0.204,-0.055 0,0"
             style="fill:#060633;fill-opacity:1;fill-rule:nonzero;stroke:none"
             id="path408" />
        </g>
        <g
           id="g410"
           transform="translate(2748.384,1607.8727)">
          <path
             d="m 0,0 c 0.078,-2.396 -1.27,-4.383 -3.01,-4.438 -1.738,-0.055 -3.209,1.842 -3.286,4.238 -0.076,2.398 1.272,4.383 3.01,4.44 C -1.546,4.295 -0.075,2.398 0,0"
             style="fill:#060633;fill-opacity:1;fill-rule:nonzero;stroke:none"
             id="path412" />
        </g>
        <g
           id="g414"
           transform="translate(2704.571,1613.6769)">
          <path
             d="m 0,0 c -0.304,-0.037 -0.62,0.062 -0.849,0.297 -0.384,0.397 -0.378,1.031 0.019,1.418 0.235,0.228 5.162,6.021 13.133,2.276 0.5,-0.238 0.734,-0.823 0.508,-1.329 C 12.583,2.155 12.027,2.044 11.483,2.153 6.034,3.263 0.769,0.464 0.572,0.275 0.409,0.118 0.208,0.028 0,0"
             style="fill:#060633;fill-opacity:1;fill-rule:nonzero;stroke:none"
             id="path416" />
        </g>
        <g
           id="g418"
           transform="translate(2716.126,1606.496)">
          <path
             d="m 0,0 c 0.984,-2.187 0.495,-4.537 -1.091,-5.252 -1.587,-0.712 -3.672,0.481 -4.655,2.668 -0.983,2.187 -0.493,4.539 1.093,5.252 C -3.066,3.382 -0.983,2.189 0,0"
             style="fill:#060633;fill-opacity:1;fill-rule:nonzero;stroke:none"
             id="path420" />
        </g>
        <g
           id="g422"
           transform="translate(2725.9502,1664.0618)">
          <path
             d="m 0,0 c 0,0 0.951,-18.91 24.566,-22.133 23.614,-3.225 39.901,-13.216 36.728,-30.225 -3.169,-17.013 -41.233,-52.304 -13.259,-65.974 27.975,-13.669 22.021,11.819 52.35,5.911 30.329,-5.911 35.799,34.588 14.916,58.092 -20.882,23.504 -12.425,85.697 -90.735,82.939 -78.31,-2.758 -49.619,-65.235 -49.619,-65.235 0,0 25.1,15.743 25.053,36.625"
             style="fill:#561c17;fill-opacity:1;fill-rule:nonzero;stroke:none"
             id="path424" />
        </g>
        <g
           id="g426"
           transform="translate(2782.04,1542.2301)">
          <path
             d="m 0,0 c -5.893,2.378 -9.514,5.922 -10.766,10.531 -3.441,12.681 11.336,31.837 24.375,48.738 3.431,4.449 6.673,8.651 9.545,12.662 7.973,11.13 8.659,23.88 1.835,34.104 -7.485,11.213 -21.737,15.949 -37.202,12.367 -15.404,-3.574 -26.008,-0.346 -32.186,2.989 -6.714,3.623 -9.725,8.032 -9.85,8.217 l 0.528,0.357 c 0.122,-0.177 12.304,-17.678 41.365,-10.943 C 3.365,122.671 17.885,117.828 25.52,106.39 32.393,96.092 31.686,82.744 23.673,71.56 20.795,67.541 17.549,63.333 14.115,58.88 1.165,42.094 -13.508,23.073 -10.151,10.696 -8.937,6.228 -5.538,2.923 0.238,0.591 Z"
             style="fill:#ffffff;fill-opacity:1;fill-rule:nonzero;stroke:none"
             id="path428" />
        </g>
        <g
           id="g430"
           transform="translate(2720.5125,1619.069)">
          <path
             d="m 0,0 c -2.94,9.261 -8.324,16.108 -14.403,18.351 -3.423,1.223 -6.776,0.91 -9.759,-0.935 -8.792,-5.457 -11.99,-22.274 -7.145,-37.472 2.939,-9.234 8.325,-16.109 14.404,-18.353 3.394,-1.193 6.775,-0.909 9.743,0.937 C 1.633,-31.99 4.843,-15.171 0,0 m -17.585,-40.257 c -6.635,2.444 -12.471,9.774 -15.597,19.604 -5.1,16.022 -1.52,33.835 7.983,39.715 3.537,2.245 7.514,2.586 11.477,1.137 6.634,-2.443 12.472,-9.772 15.597,-19.573 5.1,-15.995 1.521,-33.836 -7.983,-39.745 -2.131,-1.336 -4.417,-1.988 -6.763,-1.988 -1.559,0 -3.138,0.284 -4.714,0.85"
             style="fill:#6f4975;fill-opacity:1;fill-rule:nonzero;stroke:none"
             id="path432" />
        </g>
        <g
           id="g434">
          <g
             id="g436" />
          <g
             id="g448">
            <g
               clip-path="url(#clipPath440)"
               opacity="0.300003"
               id="g446">
              <g
                 transform="translate(2773.4902,1630.0945)"
                 id="g444">
                <path
                   d="m 0,0 c 3.544,-15.561 -2.12,-32.271 -12.651,-37.318 -10.532,-5.048 -21.944,3.472 -25.487,19.032 -3.544,15.562 2.119,32.27 12.652,37.319 C -14.954,24.082 -3.544,15.559 0,0"
                   style="fill:#ffffff;fill-opacity:1;fill-rule:nonzero;stroke:none"
                   id="path442" />
              </g>
            </g>
          </g>
        </g>
        <g
           id="g450">
          <g
             id="g452" />
          <g
             id="g464">
            <g
               clip-path="url(#clipPath456)"
               opacity="0.300003"
               id="g462">
              <g
                 transform="translate(2722.8093,1618.3868)"
                 id="g460">
                <path
                   d="m 0,0 c 3.553,-15.632 -1.178,-32.583 -10.567,-37.861 -9.39,-5.278 -19.884,3.115 -23.437,18.748 -3.553,15.632 1.178,32.583 10.567,37.861 C -14.046,24.027 -3.555,15.633 0,0"
                   style="fill:#ffffff;fill-opacity:1;fill-rule:nonzero;stroke:none"
                   id="path458" />
              </g>
            </g>
          </g>
        </g>
        <g
           id="g466"
           transform="translate(2746.7769,1651.2568)">
          <path
             d="m 0,0 c -10.796,-5.085 -16.605,-22.045 -12.954,-37.813 2.088,-8.978 7.016,-16.136 13.182,-19.118 4.134,-1.932 8.507,-1.961 12.612,-0.087 10.81,5.086 16.619,22.046 12.955,37.812 -2.073,8.95 -6.989,16.08 -13.138,19.091 C 10.554,0.91 8.382,1.421 6.207,1.421 4.119,1.421 2.031,0.939 0,0 m -0.639,-58.694 c -6.79,3.295 -11.975,10.739 -14.22,20.426 -3.861,16.619 2.43,34.575 14.035,40.029 4.673,2.187 9.617,2.16 14.346,-0.113 6.777,-3.296 11.947,-10.738 14.177,-20.399 3.879,-16.646 -2.416,-34.601 -14.035,-40.028 -2.3,-1.108 -4.673,-1.647 -7.045,-1.647 -2.428,0 -4.873,0.597 -7.258,1.732"
             style="fill:#6f4975;fill-opacity:1;fill-rule:nonzero;stroke:none"
             id="path468" />
        </g>
        <g
           id="g470"
           transform="translate(2720.7261,1612.5627)">
          <path
             d="m 0,0 c 0.412,0 0.823,0.142 1.165,0.426 0.198,0.172 4.957,3.893 13.168,2.33 0.964,-0.141 1.959,0.455 2.158,1.45 0.198,0.994 -0.455,1.96 -1.45,2.131 C 5.128,8.41 -0.91,3.468 -1.18,3.268 -1.946,2.615 -2.062,1.45 -1.407,0.682 -1.052,0.229 -0.527,0 0,0"
             style="fill:#6f4975;fill-opacity:1;fill-rule:nonzero;stroke:none"
             id="path472" />
        </g>
        <g
           id="g474"
           transform="translate(2949.7712,1465.64)">
          <path
             d="m 0,0 c 2.27,-6.587 -14.844,-18.921 -38.226,-27.545 -23.381,-8.625 -44.174,-10.276 -46.444,-3.687 -2.269,6.588 14.844,18.92 38.226,27.546 C -23.064,4.937 -2.27,6.589 0,0"
             style="fill:#561c17;fill-opacity:1;fill-rule:nonzero;stroke:none"
             id="path476" />
        </g>
        <g
           id="g478"
           transform="translate(2789.2683,1237.7104)">
          <path
             d="m 0,0 -0.783,47.818 c -0.107,6.535 4.921,12.014 11.44,12.48 33.148,2.371 56.353,12.652 69.066,30.629 17.651,24.965 15.789,63.74 10.87,90.628 -2.517,13.761 2.025,22.962 18.646,31.784 0,0 14.302,7.866 31.935,10.868 7.063,1.204 14.074,-1.634 15.896,-8.563 2.852,-10.847 6.544,-27.718 8.306,-47.571 C 169.558,120.919 160.465,79.901 139.073,49.455 112.819,12.086 70.499,-8.589 13.161,-12.103 6.12,-12.533 0.115,-7.051 0,0"
             style="fill:#ffa076;fill-opacity:1;fill-rule:nonzero;stroke:none"
             id="path480" />
        </g>
        <g
           id="g482">
          <g
             id="g484" />
          <g
             id="g496">
            <g
               clip-path="url(#clipPath488)"
               opacity="0.5"
               id="g494">
              <g
                 transform="translate(2920.3777,1327.1101)"
                 id="g492">
                <path
                   d="m 0,0 c -3.712,0 -8.247,-2.401 -11.57,-6.526 -4.716,-5.855 -5.514,-13.368 -1.744,-16.406 3.768,-3.032 10.938,-0.651 15.656,5.203 4.715,5.858 5.515,13.372 1.745,16.407 C 2.972,-0.424 1.559,0 0,0 m -9.238,-27.451 c -2.277,0 -4.386,0.652 -6.088,2.023 -5.214,4.198 -4.647,13.58 1.261,20.915 5.904,7.335 14.95,9.887 20.164,5.688 5.21,-4.199 4.647,-13.579 -1.261,-20.914 -3.977,-4.94 -9.38,-7.712 -14.076,-7.712"
                   style="fill:#f47c53;fill-opacity:1;fill-rule:nonzero;stroke:none"
                   id="path490" />
              </g>
            </g>
          </g>
        </g>
        <g
           id="g498"
           transform="translate(2841.0542,1116.558)">
          <path
             d="m 0,0 c 0,0 -182.18,34.802 -241.249,18.386 l 28.325,-41.977 105.3,-5.958 z"
             style="fill:#8a4d27;fill-opacity:1;fill-rule:nonzero;stroke:none"
             id="path500" />
        </g>
        <g
           id="g502"
           transform="translate(2767.4907,1293.4279)">
          <path
             d="m 0,0 -157.035,-0.059 c -3.289,-0.002 -6.209,2.088 -7.247,5.186 l -32.671,97.447 c -1.646,4.907 2.031,9.972 7.242,9.975 l 151.015,0.058 c 6.882,0.002 12.993,-4.371 15.166,-10.856 L 7.24,9.977 C 8.886,5.07 5.208,0.003 0,0"
             style="fill:#561c17;fill-opacity:1;fill-rule:nonzero;stroke:none"
             id="path504" />
        </g>
        <g
           id="g506"
           transform="translate(2757.6345,1293.4249)">
          <path
             d="m 0,0 -157.035,-0.061 c -3.289,0 -6.209,2.089 -7.248,5.186 l -32.669,97.446 c -1.645,4.91 2.03,9.975 7.239,9.978 l 151.017,0.057 c 6.882,0.003 12.993,-4.37 15.166,-10.856 L 7.24,9.975 C 8.885,5.068 5.207,0.002 0,0"
             style="fill:#561c17;fill-opacity:1;fill-rule:nonzero;stroke:none"
             id="path508" />
        </g>
        <g
           id="g510"
           transform="translate(2647.5806,1352.8833)">
          <path
             d="m 0,0 c -0.001,3.7 4.266,5.21 7.991,5.21 3.727,0.004 9.812,-4.058 9.776,-9.241 -0.04,-5.595 -4.411,-6.324 -8.138,-6.326 C 5.904,-10.359 0.001,-4.711 0,0"
             style="fill:#b9efd4;fill-opacity:1;fill-rule:nonzero;stroke:none"
             id="path512" />
        </g>
        <g
           id="g514"
           transform="translate(2746.4456,1356.7706)">
          <path
             d="m 0,0 c -0.078,0.29 -7.792,29.181 -12.785,38.155 -4.902,8.816 -10.981,10.6 -11.042,10.617 l 0.272,0.982 c 0.264,-0.073 6.533,-1.884 11.661,-11.101 C -6.839,29.566 0.669,1.454 0.986,0.261 Z"
             style="fill:#008059;fill-opacity:1;fill-rule:nonzero;stroke:none"
             id="path516" />
        </g>
        <g
           id="g518"
           transform="translate(2762.3093,1309.4518)">
          <path
             d="m 0,0 -12.254,36.547 0.966,0.326 L 0.966,0.327 Z"
             style="fill:#008059;fill-opacity:1;fill-rule:nonzero;stroke:none"
             id="path520" />
        </g>
        <g
           id="g522"
           transform="translate(2561.6836,1328.2303)">
          <path
             d="m 0,0 c 0,0 -2.602,-20.456 14.707,-22.397 22.052,-2.476 52.279,17.269 38.332,19.044 -12.367,1.573 -30.538,-0.736 -30.538,-0.736 0,0 46.144,6.561 41.849,16.377 -4.293,9.816 -43.914,3.595 -43.914,3.595 0,0 44.474,10.934 37.594,18.715 -6.88,7.78 -42.882,2.373 -42.882,2.373 0,0 43.938,8.179 35.745,17.01 C 42.699,62.811 20.656,53.645 10.548,52.036 0.995,50.515 -1.346,43.419 0.44,33.641 c 0,0 -3.511,-10.994 -0.84,-17.022 C 0.626,14.305 -1.253,11.549 -1.248,9.727 -1.241,6.241 0,0 0,0"
             style="fill:#ffa076;fill-opacity:1;fill-rule:nonzero;stroke:none"
             id="path524" />
        </g>
        <g
           id="g526"
           transform="translate(2812.0974,1301.0422)">
          <path
             d="m 0,0 c 0,0 -11.64,35.233 -31.576,43.86 -19.932,8.627 -51.919,4.576 -40.696,-3.397 11.22,-7.97 28.371,-14.195 28.371,-14.195 0,0 -37.268,11.575 -36.201,1.688 1.067,-9.888 33.577,-19.644 33.577,-19.644 0,0 -45.444,10.241 -41.411,1.227 4.032,-9.014 38.61,-16.55 38.61,-16.55 0,0 -42.664,7.838 -37.734,-2.523 4.93,-10.362 35.298,-6.248 36.367,-16.137 1.068,-9.888 8.651,-48.804 36.499,-49.194 z"
             style="fill:#ffa076;fill-opacity:1;fill-rule:nonzero;stroke:none"
             id="path528" />
        </g>
        <g
           id="g530"
           transform="translate(2781.4832,1319.1202)">
          <path
             d="m 0,0 c -2.706,5.694 -13.302,7.381 -13.409,7.398 l 0.244,1.585 c 0.47,-0.072 11.547,-1.84 14.613,-8.295 z"
             style="fill:#f47c53;fill-opacity:1;fill-rule:nonzero;stroke:none"
             id="path532" />
        </g>
        <g
           id="g534"
           transform="translate(2781.6602,1299.5085)">
          <path
             d="m 0,0 c -5.638,7.539 -16.091,9.037 -16.195,9.05 l 0.214,1.591 C -15.526,10.578 -4.765,9.047 1.282,0.96 Z"
             style="fill:#f47c53;fill-opacity:1;fill-rule:nonzero;stroke:none"
             id="path536" />
        </g>
        <g
           id="g538"
           transform="translate(2777.7317,1284.9513)">
          <path
             d="m 0,0 c -2.358,6.284 -14.954,8.267 -15.082,8.286 l 0.243,1.587 C -14.284,9.789 -1.184,7.72 1.503,0.563 Z"
             style="fill:#f47c53;fill-opacity:1;fill-rule:nonzero;stroke:none"
             id="path540" />
        </g>
        <g
           id="g542"
           transform="translate(2578.9207,1304.7006)">
          <path
             d="M 0,0 C -3.556,0 -6.882,0.522 -8.794,2.109 L -7.77,3.346 C -3.724,-0.014 9.448,2.322 14.185,3.504 L 14.571,1.949 C 14.098,1.832 6.65,0 0,0"
             style="fill:#f47c53;fill-opacity:1;fill-rule:nonzero;stroke:none"
             id="path544" />
        </g>
        <g
           id="g546"
           transform="translate(1547.6844,1154.3149)">
          <path
             d="m 0,0 -694.127,-30.622 c -56.341,-2.486 -104.213,35.153 -106.568,83.788 l -33.159,684.61 c -2.347,48.481 41.445,89.366 97.641,91.156 l 750.651,23.922 c 58.662,1.87 106.919,-39.473 105.175,-90.102 L 96.246,84.843 C 94.674,39.245 52.795,2.331 0,0"
             style="fill:#4bae48;fill-opacity:1;fill-rule:nonzero;stroke:none"
             id="path548" />
        </g>
        <g
           id="g550"
           transform="translate(1166.0161,1542.7489)">
          <path
             d="m 0,0 -321.798,-11.217 c -19.683,-0.687 -36.013,15.084 -36.013,34.779 v 334.252 c 0,19.676 16.299,35.438 35.963,34.781 L -0.05,381.846 C 18.705,381.22 33.587,365.833 33.587,347.065 V 34.781 C 33.587,16.033 18.737,0.653 0,0"
             style="fill:#b9efd4;fill-opacity:1;fill-rule:nonzero;stroke:none"
             id="path552" />
        </g>
        <g
           id="g554"
           transform="translate(905.6179,1834.853)">
          <path
             d="M 0,0 C 0,19.786 16.126,33.961 35.822,35.825 66.021,38.683 73.536,15.334 73.536,-4.451 73.536,-24.236 56.282,-37.29 30.677,-37.29 10.894,-37.29 0,-19.783 0,0"
             style="fill:#8a4d27;fill-opacity:1;fill-rule:nonzero;stroke:none"
             id="path556" />
        </g>
        <g
           id="g558"
           transform="translate(875.7345,1699.7827)">
          <path
             d="m 0,0 -30.543,-67.077 c -9.113,-20.012 4.277,-43.47 24.812,-43.47 h 267.817 c 18.93,0 32.278,20.201 26.239,39.712 l -60.464,195.39 c -7.823,25.28 -39.778,27.829 -50.91,4.059 L 113.152,-7.611 C 104.964,-25.1 83.824,-29.528 70.247,-16.602 L 43.047,9.293 C 29.372,22.312 8.066,17.712 0,0"
             style="fill:#8a4d27;fill-opacity:1;fill-rule:nonzero;stroke:none"
             id="path560" />
        </g>
        <g
           id="g562"
           transform="translate(1562.356,1822.5485)">
          <path
             d="m 0,0 h -285.666 c -6.288,0 -15.963,5.804 -16.798,11.325 -1.712,11.326 10.491,14.563 16.779,14.563 L 0,20.256 c 6.286,0 11.43,-4.559 11.43,-10.128 C 11.43,4.557 6.286,0 0,0"
             style="fill:#b9efd4;fill-opacity:1;fill-rule:nonzero;stroke:none"
             id="path564" />
        </g>
        <g
           id="g566"
           transform="translate(1488.1527,1870.101)">
          <path
             d="m 0,0 h -215.624 c -4.745,0 -12.046,4.664 -12.676,9.101 -1.295,9.097 7.918,11.698 12.663,11.698 L 0,16.274 c 4.745,0 8.629,-3.66 8.629,-8.136 C 8.629,3.661 4.745,0 0,0"
             style="fill:#b9efd4;fill-opacity:1;fill-rule:nonzero;stroke:none"
             id="path568" />
        </g>
        <g
           id="g570"
           transform="translate(1488.1527,1767.7621)">
          <path
             d="m 0,0 h -215.624 c -4.745,0 -12.046,4.664 -12.676,9.101 -1.295,9.099 7.918,11.698 12.663,11.698 L 0,16.276 c 4.745,0 8.629,-3.663 8.629,-8.138 C 8.629,3.661 4.745,0 0,0"
             style="fill:#b9efd4;fill-opacity:1;fill-rule:nonzero;stroke:none"
             id="path572" />
        </g>
        <g
           id="g574"
           transform="translate(1562.356,1541.6868)">
          <path
             d="m 0,0 h -285.666 c -6.288,0 -15.963,5.804 -16.798,11.324 -1.712,11.327 10.491,14.564 16.779,14.564 L 0,20.256 c 6.286,0 11.43,-4.559 11.43,-10.128 C 11.43,4.556 6.286,0 0,0"
             style="fill:#b9efd4;fill-opacity:1;fill-rule:nonzero;stroke:none"
             id="path576" />
        </g>
        <g
           id="g578"
           transform="translate(1488.1527,1589.2391)">
          <path
             d="m 0,0 h -215.624 c -4.745,0 -12.046,4.664 -12.676,9.099 -1.295,9.099 7.918,11.699 12.663,11.699 L 0,16.274 c 4.745,0 8.629,-3.661 8.629,-8.138 C 8.629,3.663 4.745,0 0,0"
             style="fill:#b9efd4;fill-opacity:1;fill-rule:nonzero;stroke:none"
             id="path580" />
        </g>
        <g
           id="g582"
           transform="translate(1160.3981,1372.6891)">
          <path
             d="m 0,0 h -326.436 c -7.185,0 -18.24,5.679 -19.194,11.079 -1.956,11.08 11.987,14.245 19.173,14.245 L 0,19.815 c 7.186,0 13.063,-4.458 13.063,-9.909 C 13.063,4.458 7.186,0 0,0"
             style="fill:#b9efd4;fill-opacity:1;fill-rule:nonzero;stroke:none"
             id="path584" />
        </g>
        <g
           id="g586"
           transform="translate(1561.9377,1372.6891)">
          <path
             d="m 0,0 h -326.436 c -7.184,0 -18.24,5.679 -19.192,11.079 -1.958,11.08 11.988,14.245 19.17,14.245 L 0,19.815 c 7.185,0 13.063,-4.458 13.063,-9.909 C 13.063,4.458 7.185,0 0,0"
             style="fill:#b9efd4;fill-opacity:1;fill-rule:nonzero;stroke:none"
             id="path588" />
        </g>
        <g
           id="g590"
           transform="translate(1160.3981,1264.9246)">
          <path
             d="m 0,0 h -326.436 c -7.185,0 -18.24,5.679 -19.194,11.078 -1.956,11.079 11.987,14.245 19.173,14.245 L 0,19.815 c 7.186,0 13.063,-4.458 13.063,-9.907 C 13.063,4.46 7.186,0 0,0"
             style="fill:#b9efd4;fill-opacity:1;fill-rule:nonzero;stroke:none"
             id="path592" />
        </g>
        <g
           id="g594"
           transform="translate(1561.9377,1264.9246)">
          <path
             d="m 0,0 h -326.436 c -7.184,0 -18.24,5.679 -19.192,11.078 -1.958,11.079 11.988,14.245 19.17,14.245 L 0,19.815 c 7.185,0 13.063,-4.458 13.063,-9.907 C 13.063,4.46 7.185,0 0,0"
             style="fill:#b9efd4;fill-opacity:1;fill-rule:nonzero;stroke:none"
             id="path596" />
        </g>
        <g
           id="g598"
           transform="translate(1075.6046,1431.8663)">
          <path
             d="m 0,0 h -246.394 c -5.424,0 -13.769,4.563 -14.488,8.902 -1.477,8.9 9.049,11.444 14.472,11.444 L 0,15.92 c 5.424,0 9.862,-3.58 9.862,-7.959 C 9.862,3.584 5.424,0 0,0"
             style="fill:#b9efd4;fill-opacity:1;fill-rule:nonzero;stroke:none"
             id="path600" />
        </g>
        <g
           id="g602"
           transform="translate(1575.9026,1431.8663)">
          <path
             d="m 0,0 h -139.32 c -3.065,0 -7.784,4.563 -8.192,8.902 -0.833,8.9 5.118,11.444 8.184,11.444 L 0,15.92 c 3.066,0 5.575,-3.58 5.575,-7.959 C 5.575,3.584 3.066,0 0,0"
             style="fill:#b9efd4;fill-opacity:1;fill-rule:nonzero;stroke:none"
             id="path604" />
        </g>
        <g
           id="g606"
           transform="translate(1385.7009,1431.8663)">
          <path
             d="m 0,0 h -246.395 c -5.424,0 -13.768,4.563 -14.489,8.902 -1.475,8.9 9.051,11.444 14.474,11.444 L 0,15.92 c 5.424,0 9.861,-3.58 9.861,-7.959 C 9.861,3.584 5.424,0 0,0"
             style="fill:#b9efd4;fill-opacity:1;fill-rule:nonzero;stroke:none"
             id="path608" />
        </g>
        <g
           id="g610"
           transform="translate(1075.6046,1325.4174)">
          <path
             d="m 0,0 h -246.394 c -5.424,0 -13.769,4.562 -14.488,8.901 -1.477,8.901 9.049,11.445 14.472,11.445 L 0,15.92 c 5.424,0 9.862,-3.584 9.862,-7.962 C 9.862,3.582 5.424,0 0,0"
             style="fill:#b9efd4;fill-opacity:1;fill-rule:nonzero;stroke:none"
             id="path612" />
        </g>
        <g
           id="g614"
           transform="translate(1575.9026,1325.4174)">
          <path
             d="m 0,0 h -139.32 c -3.065,0 -7.784,4.562 -8.192,8.901 -0.833,8.901 5.118,11.445 8.184,11.445 L 0,15.92 c 3.066,0 5.575,-3.584 5.575,-7.962 C 5.575,3.582 3.066,0 0,0"
             style="fill:#b9efd4;fill-opacity:1;fill-rule:nonzero;stroke:none"
             id="path616" />
        </g>
        <g
           id="g618"
           transform="translate(1385.7009,1325.4174)">
          <path
             d="m 0,0 h -246.395 c -5.424,0 -13.768,4.562 -14.489,8.901 -1.475,8.901 9.051,11.445 14.474,11.445 L 0,15.92 c 5.424,0 9.861,-3.584 9.861,-7.962 C 9.861,3.582 5.424,0 0,0"
             style="fill:#b9efd4;fill-opacity:1;fill-rule:nonzero;stroke:none"
             id="path620" />
        </g>
        <g
           id="g622"
           transform="translate(2200.6406,629.381)">
          <path
             d="m 0,0 -356.678,-23.644 c -25.99,-1.723 -47.946,17.441 -47.316,41.301 l 10.262,388.376 c 0.591,22.395 20.955,40.08 45.407,39.433 l 346.416,-9.182 c 23.871,-0.632 42.865,-18.539 42.865,-40.41 V 40.324 C 40.956,19.129 23.083,1.531 0,0"
             style="fill:#7fc064;fill-opacity:1;fill-rule:nonzero;stroke:none"
             id="path624" />
        </g>
        <g
           id="g626"
           transform="translate(2106.2625,661.7855)">
          <path
             d="m 0,0 h -232.461 c -5.117,0 -12.988,5.332 -13.667,10.404 -1.393,10.403 8.536,13.375 13.654,13.375 L 0,18.606 c 5.118,0 9.302,-4.185 9.302,-9.302 C 9.302,4.188 5.118,0 0,0"
             style="fill:#7fc064;fill-opacity:1;fill-rule:nonzero;stroke:none"
             id="path628" />
        </g>
        <g
           id="g630"
           transform="translate(2045.8807,705.4642)">
          <path
             d="m 0,0 h -175.463 c -3.861,0 -9.804,4.284 -10.317,8.357 -1.052,8.358 6.444,10.745 10.305,10.745 L 0,14.948 c 3.863,0 7.022,-3.364 7.022,-7.474 C 7.022,3.362 3.863,0 0,0"
             style="fill:#7fc064;fill-opacity:1;fill-rule:nonzero;stroke:none"
             id="path632" />
        </g>
        <g
           id="g634"
           transform="translate(1665.8777,653.7774)">
          <path
             d="m 0,0 -356.678,-22.352 c -25.992,-1.628 -47.948,16.488 -47.317,39.041 l 10.262,367.107 c 0.594,21.17 20.955,37.887 45.406,37.273 l 346.416,-8.678 c 23.872,-0.598 42.866,-17.522 42.866,-38.198 V 38.114 C 40.955,18.081 23.081,1.447 0,0"
             style="fill:#7fc064;fill-opacity:1;fill-rule:nonzero;stroke:none"
             id="path636" />
        </g>
        <g
           id="g638"
           transform="translate(1571.4994,735.3246)">
          <path
             d="m 0,0 h -232.462 c -5.116,0 -12.988,5.331 -13.668,10.401 -1.393,10.403 8.538,13.376 13.654,13.376 L 0,18.605 c 5.116,0 9.302,-4.187 9.302,-9.304 C 9.302,4.185 5.116,0 0,0"
             style="fill:#b9efd4;fill-opacity:1;fill-rule:nonzero;stroke:none"
             id="path640" />
        </g>
        <g
           id="g642"
           transform="translate(1571.4994,689.3505)">
          <path
             d="m 0,0 h -232.462 c -5.116,0 -12.988,5.331 -13.668,10.403 -1.393,10.402 8.538,13.374 13.654,13.374 L 0,18.606 c 5.116,0 9.302,-4.188 9.302,-9.304 C 9.302,4.185 5.116,0 0,0"
             style="fill:#b9efd4;fill-opacity:1;fill-rule:nonzero;stroke:none"
             id="path644" />
        </g>
        <g
           id="g646"
           transform="translate(1511.1179,779.0002)">
          <path
             d="m 0,0 h -175.465 c -3.861,0 -9.803,4.284 -10.315,8.359 -1.052,8.358 6.444,10.745 10.305,10.745 L 0,14.948 c 3.861,0 7.021,-3.362 7.021,-7.474 C 7.021,3.364 3.861,0 0,0"
             style="fill:#b9efd4;fill-opacity:1;fill-rule:nonzero;stroke:none"
             id="path648" />
        </g>
        <g
           id="g650"
           transform="translate(1130.1211,629.2802)">
          <path
             d="m 0,0 -356.678,-23.544 c -25.992,-1.715 -47.946,17.366 -47.317,41.124 l 10.263,386.71 c 0.591,22.299 20.955,39.909 45.405,39.265 l 346.418,-9.142 c 23.871,-0.63 42.865,-18.46 42.865,-40.239 V 40.15 C 40.956,19.046 23.082,1.523 0,0"
             style="fill:#4db05b;fill-opacity:1;fill-rule:nonzero;stroke:none"
             id="path652" />
        </g>
        <g
           id="g654"
           transform="translate(1067.0746,908.7073)">
          <path
             d="m 0,0 h -232.461 c -5.117,0 -12.99,4.863 -13.667,9.486 -1.395,9.486 8.536,12.197 13.653,12.197 L 0,16.965 c 5.116,0 9.302,-3.815 9.302,-8.482 C 9.302,3.817 5.116,0 0,0"
             style="fill:#b9efd4;fill-opacity:1;fill-rule:nonzero;stroke:none"
             id="path656" />
        </g>
        <g
           id="g658"
           transform="translate(1067.0746,866.7836)">
          <path
             d="m 0,0 h -232.461 c -5.117,0 -12.99,4.861 -13.667,9.486 -1.395,9.486 8.536,12.195 13.653,12.195 L 0,16.965 c 5.116,0 9.302,-3.818 9.302,-8.484 C 9.302,3.816 5.116,0 0,0"
             style="fill:#b9efd4;fill-opacity:1;fill-rule:nonzero;stroke:none"
             id="path660" />
        </g>
        <g
           id="g662"
           transform="translate(1006.6929,948.537)">
          <path
             d="m 0,0 h -175.463 c -3.861,0 -9.804,3.907 -10.317,7.622 -1.052,7.622 6.444,9.8 10.305,9.8 L 0,13.632 c 3.863,0 7.022,-3.066 7.022,-6.816 C 7.022,3.068 3.863,0 0,0"
             style="fill:#b9efd4;fill-opacity:1;fill-rule:nonzero;stroke:none"
             id="path664" />
        </g>
        <g
           id="g666"
           transform="translate(1067.0746,772.7108)">
          <path
             d="m 0,0 h -232.461 c -5.117,0 -12.99,4.862 -13.667,9.487 -1.395,9.487 8.536,12.198 13.653,12.198 L 0,16.969 c 5.116,0 9.302,-3.819 9.302,-8.485 C 9.302,3.819 5.116,0 0,0"
             style="fill:#b9efd4;fill-opacity:1;fill-rule:nonzero;stroke:none"
             id="path668" />
        </g>
        <g
           id="g670"
           transform="translate(1067.0746,730.7872)">
          <path
             d="m 0,0 h -232.461 c -5.117,0 -12.99,4.862 -13.667,9.485 -1.395,9.487 8.536,12.198 13.653,12.198 L 0,16.967 c 5.116,0 9.302,-3.817 9.302,-8.483 C 9.302,3.817 5.116,0 0,0"
             style="fill:#b9efd4;fill-opacity:1;fill-rule:nonzero;stroke:none"
             id="path672" />
        </g>
        <g
           id="g674"
           transform="translate(1006.6929,812.5418)">
          <path
             d="m 0,0 h -175.463 c -3.861,0 -9.804,3.906 -10.317,7.624 -1.052,7.62 6.444,9.796 10.305,9.796 L 0,13.632 c 3.863,0 7.022,-3.067 7.022,-6.816 C 7.022,3.068 3.863,0 0,0"
             style="fill:#b9efd4;fill-opacity:1;fill-rule:nonzero;stroke:none"
             id="path676" />
        </g>
        <g
           id="g678"
           transform="translate(1096.3551,542.7436)">
          <path
             d="m 0,0 -82.202,-8.211 c -6.842,-0.682 -12.13,-9.044 -12.092,-19.116 l 0.03,-8.44 c 0.04,-10.557 5.899,-19.093 13.085,-19.065 l 81.384,0.305 z"
             style="fill:#561c17;fill-opacity:1;fill-rule:nonzero;stroke:none"
             id="path680" />
        </g>
        <g
           id="g682"
           transform="translate(2548.4302,544.978)">
          <path
             d="M 0,0 C 0,0 20.862,-3.425 20.131,-7.961 18.951,-15.277 0.059,-16.073 0.059,-16.073 Z"
             style="fill:#561c17;fill-opacity:1;fill-rule:nonzero;stroke:none"
             id="path684" />
        </g>
        <g
           id="g686"
           transform="translate(1155.4852,530.3906)">
          <path
             d="M 0,0 C -0.853,0 -1.717,0.092 -2.584,0.287 -8.927,1.706 -12.918,8 -11.499,14.343 l 10.766,48.088 c 0.071,0.316 0.155,0.628 0.251,0.934 4.504,14.443 18.206,24.138 33.331,23.623 L 447.19,72.297 c 6.497,-0.231 11.578,-5.685 11.348,-12.182 -0.232,-6.494 -5.669,-11.549 -12.181,-11.346 L 32.015,63.46 c -4.407,0.131 -8.43,-2.593 -9.9,-6.731 L 11.474,9.201 C 10.247,3.724 5.386,0 0,0"
             style="fill:#561c17;fill-opacity:1;fill-rule:nonzero;stroke:none"
             id="path688" />
        </g>
        <g
           id="g690"
           transform="translate(2429.6033,473.777)">
          <path
             d="m 0,0 -1317.397,4.009 c -12.558,0.08 -22.71,10.26 -22.756,22.819 l -0.117,30.935 c -0.046,12.471 9.89,22.687 22.356,22.986 L -2.773,110.611 Z"
             style="fill:#ffc655;fill-opacity:1;fill-rule:nonzero;stroke:none"
             id="path692" />
        </g>
        <g
           id="g694"
           transform="translate(1299.3477,559.0193)">
          <path
             d="m 0,0 c 0,0 -13.163,-33.935 0.31,-82.443 l 83.922,-0.542 c 0,0 -21.904,45.173 -0.319,84.993 z"
             style="fill:#561c17;fill-opacity:1;fill-rule:nonzero;stroke:none"
             id="path696" />
        </g>
        <g
           id="g698"
           transform="translate(2548.4316,544.888)">
          <path
             d="m 0,0 0.053,-14.693 c 0.017,-4.098 -2.368,-7.823 -6.095,-9.525 l -96.056,-43.821 c -14.055,-6.411 -30.846,-2.55 -40.269,9.69 -6.886,8.945 -12.248,22.088 -10.859,41.003 1.775,24.194 7.559,38.4 13.872,46.735 6.689,8.838 18.316,12.373 28.916,9.125 L -4.502,6.062 C -1.836,5.246 -0.012,2.788 0,0"
             style="fill:#8a4d27;fill-opacity:1;fill-rule:nonzero;stroke:none"
             id="path700" />
        </g>
        <g
           id="g702"
           transform="translate(1114.8834,495.2296)">
          <path
             d="m 0,0 c -0.997,0 -1.807,0.807 -1.81,1.804 -0.003,1 0.804,1.815 1.804,1.819 l 140.039,0.525 h 0.005 c 0.998,0 1.81,-0.806 1.811,-1.804 0.005,-1 -0.802,-1.813 -1.802,-1.817 L 0.008,0 Z"
             style="fill:#561c17;fill-opacity:1;fill-rule:nonzero;stroke:none"
             id="path704" />
        </g>
        <g
           id="g706"
           transform="translate(1410.6561,496.3407)">
          <path
             d="m 0,0 c -0.997,0 -1.807,0.807 -1.812,1.804 -0.003,0.999 0.805,1.813 1.804,1.818 l 947.072,3.556 h 0.006 c 0.998,0 1.807,-0.808 1.812,-1.806 0.003,-0.999 -0.804,-1.813 -1.804,-1.818 L 0.006,0 Z"
             style="fill:#561c17;fill-opacity:1;fill-rule:nonzero;stroke:none"
             id="path708" />
        </g>
        <g
           id="g710"
           transform="translate(2154.2253,1331.3241)">
          <path
             d="M 0,0 C 0,13.533 10.97,24.505 24.503,24.505 38.038,24.505 49.008,13.533 49.008,0 49.008,-13.535 38.038,-24.507 24.503,-24.507 10.97,-24.507 0,-13.535 0,0"
             style="fill:#f4f4f4;fill-opacity:1;fill-rule:nonzero;stroke:none"
             id="path712" />
        </g>
        <g
           id="g714"
           transform="translate(2134.0061,1352.865)">
          <path
             d="m 0,0 c -2.242,0 -4.51,0.624 -6.534,1.935 -5.578,3.614 -7.173,11.067 -3.558,16.648 C 2.004,37.26 22.496,48.41 44.723,48.41 65.508,48.41 85.234,38.372 97.491,21.559 101.409,16.187 100.228,8.657 94.854,4.74 89.483,0.821 81.953,2.002 78.037,7.375 70.296,17.994 57.842,24.334 44.723,24.334 30.694,24.334 17.754,17.291 10.114,5.496 7.811,1.938 3.945,0 0,0"
             style="fill:#f4f4f4;fill-opacity:1;fill-rule:nonzero;stroke:none"
             id="path716" />
        </g>
        <g
           id="g718"
           transform="translate(2098.2683,1377.4934)">
          <path
             d="m 0,0 c -2.242,0 -4.512,0.624 -6.532,1.934 -5.582,3.615 -7.175,11.068 -3.561,16.648 20.134,31.087 54.24,49.646 91.234,49.646 34.59,0 67.422,-16.708 87.828,-44.692 3.916,-5.373 2.736,-12.903 -2.636,-16.819 C 160.964,2.799 153.432,3.977 149.514,9.351 133.626,31.142 108.067,44.152 81.141,44.152 52.344,44.152 25.793,29.7 10.114,5.496 7.811,1.937 3.945,0 0,0"
             style="fill:#f4f4f4;fill-opacity:1;fill-rule:nonzero;stroke:none"
             id="path720" />
        </g>
        <g
           id="g722"
           transform="translate(2577.6831,413.5862)">
          <path
             d="m 0,0 h -2231.552 c -16.281,0 -30.527,6.259 -34.712,15.252 l -12.623,27.128 c -6.081,13.072 11.248,25.872 34.923,25.793 L 10.531,60.704 C 34.503,60.624 51.614,47.406 44.726,34.285 L 34.402,14.624 C 29.845,5.946 15.862,0 0,0"
             style="fill:#00613e;fill-opacity:1;fill-rule:nonzero;stroke:none"
             id="path724" />
        </g>
        <g
           id="g726"
           transform="translate(705.9064,784.7312)">
          <path
             d="m 0,0 c 6.12,-10.906 67.591,-106.124 54.726,-199.252 l -66.905,24.19 -30.573,125.533 z"
             style="fill:#ffa076;fill-opacity:1;fill-rule:nonzero;stroke:none"
             id="path728" />
        </g>
        <g
           id="g730"
           transform="translate(438.7485,823.7551)">
          <path
             d="m 0,0 c 0,0 41.108,73.727 141.166,53.343 100.062,-20.384 154.666,-163.6 127.527,-447.265 0,0 -158.961,63.197 -365.654,12.252 0,0 34.022,274.719 96.961,381.67"
             style="fill:#b8e34d;fill-opacity:1;fill-rule:nonzero;stroke:none"
             id="path732" />
        </g>
        <g
           id="g734"
           transform="translate(362.4316,853.5468)">
          <path
             d="m 0,0 70.331,-70.212 c 0,0 180.312,-48.715 230.391,-48.132 50.082,0.583 69.794,37.186 69.794,37.186 0,0 -42.267,66.937 -127.793,97.214 -8.034,2.855 -16.439,5.372 -25.234,7.489 -14.768,3.541 -29.78,5.586 -44.679,6.476 C 84.273,35.291 0,0 0,0"
             style="fill:#b8e34d;fill-opacity:1;fill-rule:nonzero;stroke:none"
             id="path736" />
        </g>
        <g
           id="g738"
           transform="translate(362.4331,853.5452)">
          <path
             d="M 0,0 C -11.244,-12.219 6.094,-25.569 25.517,-44.959 44.936,-64.347 65,-75.653 70.328,-70.212 c 5.328,5.441 -6.096,25.57 -25.517,44.959 C 25.39,-5.865 5.157,5.606 0,0"
             style="fill:#561c17;fill-opacity:1;fill-rule:nonzero;stroke:none"
             id="path740" />
        </g>
        <g
           id="g742"
           transform="translate(423.4085,783.0464)">
          <path
             d="m 0,0 c 0,0 1.048,14.023 -16.576,31.927 -10.617,10.784 -24.056,17.831 -33.067,21.732 -5.359,2.318 -11.547,-0.287 -13.674,-5.768 l -5.636,-14.539 26.254,-16.904 z"
             style="fill:#ffa076;fill-opacity:1;fill-rule:nonzero;stroke:none"
             id="path744" />
        </g>
        <g
           id="g746"
           transform="translate(547.6899,522.9807)">
          <path
             d="m 0,0 c 0,0 -216.979,117.583 -294.752,-10.685 -57.57,-94.952 28.969,-183.378 349.967,-174.395 0,0 31.724,14.86 23.999,91.932 C 76.152,-62.61 0,0 0,0"
             style="fill:#ffc655;fill-opacity:1;fill-rule:nonzero;stroke:none"
             id="path748" />
        </g>
        <g
           id="g750"
           transform="translate(547.6899,522.9807)">
          <path
             d="M 0,0 C 0,0 288.983,118.375 346.164,44.375 411.88,-40.675 348.859,-185.08 44.245,-133.46 L 7.123,-93.148 Z"
             style="fill:#ffc655;fill-opacity:1;fill-rule:nonzero;stroke:none"
             id="path752" />
        </g>
        <g
           id="g754"
           transform="translate(628.7409,406.7702)">
          <path
             d="m 0,0 c 0,0 58.985,-2.332 89.058,-17.082 30.074,-14.749 14.015,-50.751 -47.046,-49.789 -61.062,0.961 -56.426,10.047 -56.426,10.047 0,0 16.929,20.796 14.414,56.824"
             style="fill:#561c17;fill-opacity:1;fill-rule:nonzero;stroke:none"
             id="path756" />
        </g>
        <g
           id="g758"
           transform="translate(603.2592,337.405)">
          <path
             d="m 0,0 -0.707,0.991 c 33.699,24.045 24.641,85.796 23.809,90.986 l -219.033,79.719 0.415,1.143 L 24.183,92.88 24.244,92.533 C 24.362,91.866 35.639,25.43 0,0"
             style="fill:#561c17;fill-opacity:1;fill-rule:nonzero;stroke:none"
             id="path760" />
        </g>
        <g
           id="g762"
           transform="translate(560.5771,517.3413)">
          <path
             d="M 0,0 C 17.635,-0.002 32.127,4.46 43.876,13.322 66.064,30.057 70.182,56.737 66.963,74.499 L 45.735,86.842 C 44.68,92.667 3.715,71.024 3.785,71.045 3.597,70.984 -15.766,65.382 -82.902,99.691 c -46.738,23.884 -70.293,57.781 -72.012,103.627 -1.299,34.563 14.11,53.975 17.745,62.387 0.484,1.122 -22.586,24.251 -21.925,26.605 l -17.295,8.788 c 0.557,1.983 -16.628,8.762 -16.384,9.328 l -13.349,-11.369 c -6.588,-15.237 -20.599,-50.218 -18.79,-98.418 1.879,-50.067 22.553,-119.173 110.377,-164.054 C -66.642,12.109 -29.053,0.002 0,0"
             style="fill:#ffa076;fill-opacity:1;fill-rule:nonzero;stroke:none"
             id="path764" />
        </g>
        <g
           id="g766"
           transform="translate(574.8229,514.5286)">
          <path
             d="m 0,0 h 187.256 c 3.921,0 7.4,2.492 8.637,6.189 l 38.914,116.212 c 1.961,5.853 -2.427,11.892 -8.637,11.892 H 46.092 c -8.208,0 -15.493,-5.218 -18.082,-12.95 L -8.638,11.892 C -10.598,6.039 -6.212,0 0,0"
             style="fill:#00784d;fill-opacity:1;fill-rule:nonzero;stroke:none"
             id="path768" />
        </g>
        <g
           id="g770"
           transform="translate(586.5762,514.5286)">
          <path
             d="m 0,0 h 187.256 c 3.919,0 7.399,2.492 8.638,6.189 l 38.914,116.212 c 1.959,5.853 -2.428,11.892 -8.638,11.892 H 46.092 c -8.208,0 -15.493,-5.218 -18.083,-12.95 L -8.638,11.892 C -10.598,6.039 -6.212,0 0,0"
             style="fill:#00784d;fill-opacity:1;fill-rule:nonzero;stroke:none"
             id="path772" />
        </g>
        <g
           id="g774"
           transform="translate(717.7818,585.4791)">
          <path
             d="m 0,0 c 0,4.412 -5.09,6.21 -9.534,6.21 -4.442,0 -11.695,-4.842 -11.651,-11.025 0.05,-6.671 5.265,-7.538 9.706,-7.538 C -7.036,-12.353 0,-5.616 0,0"
             style="fill:#b9efd4;fill-opacity:1;fill-rule:nonzero;stroke:none"
             id="path776" />
        </g>
        <g
           id="g778"
           transform="translate(512.478,530.9521)">
          <path
             d="M 0,0 H 261.447 V -16.423 H -2.77 c -1.581,0 -2.863,1.281 -2.863,2.863 v 7.927 C -5.633,-2.522 -3.111,0 0,0"
             style="fill:#00784d;fill-opacity:1;fill-rule:nonzero;stroke:none"
             id="path780" />
        </g>
        <g
           id="g782"
           transform="translate(599.8893,590.0685)">
          <path
             d="m 0,0 -1.177,0.313 c 0.38,1.422 9.318,34.946 15.342,45.783 6.108,10.995 13.585,13.158 13.901,13.243 l 0.323,-1.172 C 28.316,58.146 21.07,56.018 15.229,45.507 9.279,34.801 0.092,0.348 0,0"
             style="fill:#b9efd4;fill-opacity:1;fill-rule:nonzero;stroke:none"
             id="path784" />
        </g>
        <g
           id="g786"
           transform="translate(572.2145,530.343)">
          <path
             d="m 0,0 v 1.217 c 6.134,0 7.658,2.541 7.672,2.567 L 22.222,47.267 23.374,46.879 8.782,3.295 C 8.669,3.069 6.943,0 0,0"
             style="fill:#b9efd4;fill-opacity:1;fill-rule:nonzero;stroke:none"
             id="path788" />
        </g>
        <g
           id="g790"
           transform="translate(381.3109,646.8285)">
          <path
             d="m 0,0 c -0.67,0 -1.267,-0.151 -1.786,-0.453 -3.299,-1.923 -2.761,-9.365 1.177,-16.251 2.746,-4.803 6.702,-8.491 10.078,-9.394 1.282,-0.345 2.374,-0.261 3.244,0.244 3.3,1.924 2.76,9.366 -1.176,16.254 C 8.79,-4.798 4.835,-1.111 1.459,-0.208 0.94,-0.068 0.455,0 0,0 m 10.922,-28.736 c -0.667,0 -1.366,0.095 -2.085,0.287 -4.029,1.081 -8.46,5.118 -11.558,10.538 -4.745,8.297 -4.872,16.89 -0.29,19.559 1.43,0.834 3.194,1.003 5.099,0.495 4.031,-1.081 8.46,-5.117 11.559,-10.536 4.745,-8.299 4.874,-16.892 0.29,-19.563 -0.889,-0.519 -1.912,-0.78 -3.015,-0.78"
             style="fill:#f47c53;fill-opacity:1;fill-rule:nonzero;stroke:none"
             id="path792" />
        </g>
        <g
           id="g794"
           transform="translate(533.6928,883.743)">
          <path
             d="M 0,0 C 12.303,0.362 21.633,1.627 28.713,9.951 L 50.614,35.714 56.989,43.213 94.473,87.315 74.788,35.745 62.966,4.794 59.225,-5.003 c -2.54,-6.65 0.816,-9.749 3.18,-17.53 0.959,-3.15 7.418,-22.548 -9.412,-22.668 C 32.023,-45.356 5.502,-20.983 -0.322,0.063 -0.215,0.041 -0.11,-0.003 0,0"
             style="fill:#ffa076;fill-opacity:1;fill-rule:nonzero;stroke:none"
             id="path796" />
        </g>
        <g
           id="g798"
           transform="translate(578.2156,936.0065)">
          <path
             d="M 0,0 C 0,0 -41.277,39.669 -17.464,73.155 6.348,106.637 12.295,19.415 12.295,19.415 L 5.641,-0.746 Z"
             style="fill:#561c17;fill-opacity:1;fill-rule:nonzero;stroke:none"
             id="path800" />
        </g>
        <g
           id="g802"
           transform="translate(584.5112,920.3463)">
          <path
             d="m 0,0 c -0.076,-0.295 -0.145,-0.591 -0.205,-0.89 -3.83,-17.393 12.213,-30.979 12.213,-30.979 l 0.139,0.059 11.822,30.952 C 18.945,2.904 11.55,7.454 6.17,6.61 3.356,6.169 1.098,4.256 0,0"
             style="fill:#561c17;fill-opacity:1;fill-rule:nonzero;stroke:none"
             id="path804" />
        </g>
        <g
           id="g806"
           transform="translate(671.8964,941.8964)">
          <path
             d="M 0,0 C 9.307,31.002 -3.788,62.453 -29.251,70.247 -54.713,78.043 -82.9,59.228 -92.209,28.227 -101.516,-2.775 -88.42,-34.225 -62.958,-42.02 -37.496,-49.816 -9.31,-31.002 0,0"
             style="fill:#ffa076;fill-opacity:1;fill-rule:nonzero;stroke:none"
             id="path808" />
        </g>
        <g
           id="g810"
           transform="translate(588.4091,974.6031)">
          <path
             d="m 0,0 c 0,0 13.144,-9.56 24.16,-1.482 11.018,8.078 18.809,15.74 43.479,3.324 24.668,-12.417 51.674,-6.844 56.662,7.14 4.986,13.98 -6.764,24.686 -22.26,23.993 -15.495,-0.694 3.279,7.801 -7.501,22.497 -10.778,14.696 -38.12,-0.444 -51.675,6.84 -13.554,7.285 -61.837,13.616 -70.523,-27.754 z"
             style="fill:#561c17;fill-opacity:1;fill-rule:nonzero;stroke:none"
             id="path812" />
        </g>
        <g
           id="g814"
           transform="translate(578.095,966.3173)">
          <path
             d="m 0,0 c 3.17,-4.891 9.247,-6.54 13.577,-3.68 4.329,2.859 5.269,9.142 2.102,14.035 C 12.509,15.247 6.432,16.894 2.1,14.035 -2.227,11.177 -3.167,4.891 0,0"
             style="fill:#ffa076;fill-opacity:1;fill-rule:nonzero;stroke:none"
             id="path816" />
        </g>
        <g
           id="g818"
           transform="translate(685.4627,988.426)">
          <path
             d="m 0,0 c -10.366,0 -24.428,12.646 -25.074,13.232 l 1.212,1.337 C -23.696,14.42 -7.278,-0.345 2.207,2.063 5.854,2.99 7.917,4.716 7.587,6.572 7.276,8.339 4.681,10.024 1.015,9.641 -7.013,8.823 -11.37,11.544 -11.553,11.662 l 0.975,1.52 c 0.037,-0.023 4.057,-2.501 11.41,-1.744 C 5.768,11.931 8.91,9.469 9.365,6.886 9.763,4.634 8.21,1.725 2.651,0.315 1.806,0.099 0.916,0 0,0"
             style="fill:#ffffff;fill-opacity:1;fill-rule:nonzero;stroke:none"
             id="path820" />
        </g>
        <g
           id="g822"
           transform="translate(642.8478,1023.0604)">
          <path
             d="m 0,0 c -3.42,0 -6.961,0.505 -10.334,1.827 -4.295,1.682 -8.023,3.654 -11.631,5.561 -6.997,3.697 -13.034,6.891 -19.614,5.612 l -0.346,1.772 c 7.201,1.401 13.505,-1.929 20.804,-5.787 3.564,-1.885 7.246,-3.832 11.446,-5.476 12.546,-4.918 27.223,2.184 28.142,2.958 l 1.32,-1.229 C 19.003,4.333 10.01,0 0,0"
             style="fill:#ffffff;fill-opacity:1;fill-rule:nonzero;stroke:none"
             id="path824" />
        </g>
        <g
           id="g826"
           transform="translate(573.2936,1013.9597)">
          <path
             d="m 0,0 c -0.163,-0.687 -0.063,-0.891 -0.063,-0.894 0.466,-0.147 3.085,1.08 5.562,3.629 1.76,1.81 1.909,2.761 1.85,2.898 C 5.751,6.645 2.066,2.909 0,0 m -0.026,-2.656 c -0.264,0 -0.508,0.04 -0.731,0.124 -0.609,0.229 -1.539,0.943 -0.951,3.149 L -1.576,0.9 C -0.565,2.347 4.661,9.461 8.284,7.181 8.744,6.892 9.716,6.009 8.757,4.078 7.565,1.677 2.752,-2.656 -0.026,-2.656"
             style="fill:#ffffff;fill-opacity:1;fill-rule:nonzero;stroke:none"
             id="path828" />
        </g>
        <g
           id="g830"
           transform="translate(635.0427,954.4815)">
          <path
             d="M 0,0 C 0.293,0.041 0.563,0.217 0.719,0.498 0.981,0.972 0.812,1.571 0.342,1.836 0.066,1.992 -6.027,6.219 -12.555,0.627 c -0.412,-0.351 -0.482,-0.964 -0.14,-1.387 0.34,-0.423 0.891,-0.386 1.375,-0.142 4.829,2.448 10.479,1.143 10.711,1.015 C -0.417,0.006 -0.204,-0.029 0,0"
             style="fill:#060633;fill-opacity:1;fill-rule:nonzero;stroke:none"
             id="path832" />
        </g>
        <g
           id="g834"
           transform="translate(626.0214,944.7182)">
          <path
             d="M 0,0 C -0.369,-2.323 0.685,-4.426 2.355,-4.695 4.026,-4.965 5.677,-3.3 6.045,-0.977 6.413,1.346 5.357,3.449 3.689,3.719 2.018,3.99 0.368,2.324 0,0"
             style="fill:#060633;fill-opacity:1;fill-rule:nonzero;stroke:none"
             id="path836" />
        </g>
        <g
           id="g838"
           transform="translate(669.1537,942.11)">
          <path
             d="M 0,0 C 0.221,-0.058 0.475,0.015 0.681,0.227 1.031,0.585 1.12,1.198 0.881,1.601 0.738,1.836 -2.102,7.776 -8.657,4.705 -9.07,4.512 -9.333,3.962 -9.238,3.457 -9.145,2.952 -8.744,2.804 -8.317,2.872 -4.051,3.57 -0.51,0.499 -0.391,0.304 -0.291,0.142 -0.153,0.038 0,0"
             style="fill:#060633;fill-opacity:1;fill-rule:nonzero;stroke:none"
             id="path840" />
        </g>
        <g
           id="g842"
           transform="translate(656.9134,936.6081)">
          <path
             d="M 0,0 C -1.215,-2.005 -1.033,-4.356 0.407,-5.247 1.851,-6.139 4.006,-5.235 5.224,-3.228 6.439,-1.221 6.258,1.129 4.815,2.019 3.373,2.912 1.216,2.008 0,0"
             style="fill:#060633;fill-opacity:1;fill-rule:nonzero;stroke:none"
             id="path844" />
        </g>
        <g
           id="g846"
           transform="translate(628.9745,911.9062)">
          <path
             d="m 0,0 c -5.871,0 -14.737,1.731 -20,11.03 -0.189,0.33 -0.071,0.748 0.258,0.934 0.33,0.186 0.747,0.07 0.933,-0.259 C -10.976,-2.131 5.409,1.893 5.574,1.935 5.943,2.033 6.314,1.812 6.407,1.442 6.502,1.076 6.28,0.703 5.914,0.61 5.85,0.594 3.437,0 0,0"
             style="fill:#561c17;fill-opacity:1;fill-rule:nonzero;stroke:none"
             id="path848" />
        </g>
        <g
           id="g850"
           transform="translate(607.5814,920.5247)">
          <path
             d="M 0,0 C -0.07,0 -0.143,0.011 -0.215,0.035 -0.574,0.153 -0.769,0.54 -0.65,0.899 -0.087,2.607 1.425,4.179 3.845,5.571 4.158,5.787 4.643,5.734 4.855,5.423 5.066,5.11 5.044,4.718 4.73,4.505 4.698,4.483 4.628,4.441 4.528,4.385 1.889,2.865 0.963,1.416 0.65,0.47 0.556,0.182 0.289,0 0,0"
             style="fill:#561c17;fill-opacity:1;fill-rule:nonzero;stroke:none"
             id="path852" />
        </g>
        <g
           id="g854"
           transform="translate(590.6589,809.5033)">
          <path
             d="m 0,0 c -55.719,1.602 -75.867,49.97 -76.065,50.458 l 2.813,1.136 c 0.189,-0.47 19.645,-47.02 73.339,-48.565 z"
             style="fill:#561c17;fill-opacity:1;fill-rule:nonzero;stroke:none"
             id="path856" />
        </g>
        <g
           id="g858"
           transform="translate(565.0383,783.4477)">
          <path
             d="m 0,0 c -0.288,0.18 -28.949,18.508 -32.659,51.456 l 3.012,0.339 C -26.097,20.285 1.334,2.741 1.61,2.569 Z"
             style="fill:#561c17;fill-opacity:1;fill-rule:nonzero;stroke:none"
             id="path860" />
        </g>
        <g
           id="g862"
           transform="translate(693.1792,740.5717)">
          <path
             d="M 0,0 -11.053,33.601 -8.171,34.547 2.882,0.946 Z"
             style="fill:#cc6e58;fill-opacity:1;fill-rule:nonzero;stroke:none"
             id="path864" />
        </g>
        <g
           id="g866"
           transform="translate(676.0795,963.8784)">
          <path
             d="M 0,0 C -0.551,0 -1.114,-0.037 -1.686,-0.113 -8.304,-1 -15.273,-6.747 -20.323,-15.491 c -8.281,-14.334 -8.817,-32.139 -1.195,-39.691 2.581,-2.559 5.882,-3.649 9.555,-3.161 6.618,0.886 13.585,6.635 18.636,15.377 8.281,14.336 8.818,32.139 1.196,39.691 C 5.69,-1.114 2.995,0 0,0 m -13.676,-60.496 c -3.526,0 -6.703,1.317 -9.278,3.869 -8.237,8.161 -7.846,27.07 0.868,42.155 5.363,9.286 12.889,15.407 20.13,16.377 4.319,0.581 8.211,-0.711 11.26,-3.733 8.237,-8.161 7.846,-27.072 -0.867,-42.157 -5.365,-9.284 -12.89,-15.408 -20.129,-16.375 -0.672,-0.09 -1.334,-0.136 -1.984,-0.136"
             style="fill:#ffffff;fill-opacity:1;fill-rule:nonzero;stroke:none"
             id="path868" />
        </g>
        <g
           id="g870">
          <g
             id="g872" />
          <g
             id="g884">
            <g
               clip-path="url(#clipPath876)"
               opacity="0.300003"
               id="g882">
              <g
                 transform="translate(604.9303,971.5735)"
                 id="g880">
                <path
                   d="m 0,0 c -7.057,-15.004 -5.107,-33.259 4.356,-40.774 9.464,-7.514 22.854,-1.442 29.911,13.562 7.057,15.006 5.106,33.259 -4.356,40.774 C 20.447,21.077 7.056,15.004 0,0"
                   style="fill:#ffffff;fill-opacity:1;fill-rule:nonzero;stroke:none"
                   id="path878" />
              </g>
            </g>
          </g>
        </g>
        <g
           id="g886">
          <g
             id="g888" />
          <g
             id="g900">
            <g
               clip-path="url(#clipPath892)"
               opacity="0.300003"
               id="g898">
              <g
                 transform="translate(653.2918,948.2026)"
                 id="g896">
                <path
                   d="m 0,0 c -7.082,-15.076 -6.125,-33.366 2.138,-40.857 8.261,-7.487 20.7,-1.337 27.783,13.738 7.084,15.074 6.125,33.366 -2.136,40.853 C 19.52,21.224 7.081,15.074 0,0"
                   style="fill:#ffffff;fill-opacity:1;fill-rule:nonzero;stroke:none"
                   id="path894" />
              </g>
            </g>
          </g>
        </g>
        <g
           id="g902"
           transform="translate(627.4865,990.2133)">
          <path
             d="m 0,0 c -1.187,0 -2.398,-0.143 -3.623,-0.432 -6.881,-1.625 -13.443,-7.759 -17.558,-16.41 -7.231,-15.199 -5.189,-33.755 4.551,-41.362 3.703,-2.894 8.085,-3.847 12.671,-2.765 6.88,1.624 13.443,7.759 17.558,16.41 7.231,15.199 5.189,33.755 -4.552,41.358 C 6.332,-1.079 3.256,0 0,0 m -7.607,-63.443 c -3.696,0 -7.193,1.227 -10.276,3.634 -10.451,8.162 -12.754,27.829 -5.137,43.843 4.443,9.341 11.341,15.723 18.928,17.515 C 1.114,2.779 6.091,1.693 10.3,-1.593 20.752,-9.754 23.055,-29.422 15.438,-45.435 10.995,-54.776 4.096,-61.16 -3.49,-62.952 c -1.392,-0.329 -2.768,-0.491 -4.117,-0.491"
             style="fill:#ffffff;fill-opacity:1;fill-rule:nonzero;stroke:none"
             id="path904" />
        </g>
        <g
           id="g906"
           transform="translate(654.502,941.7818)">
          <path
             d="m 0,0 c -0.571,0 -1.133,0.253 -1.506,0.737 -0.185,0.237 -4.137,5.121 -12.712,5.334 -1.05,0.026 -1.882,0.898 -1.855,1.948 0.026,1.05 0.885,1.837 1.948,1.854 C -3.623,9.612 1.305,3.323 1.509,3.055 2.147,2.222 1.989,1.029 1.154,0.389 0.809,0.127 0.403,0 0,0"
             style="fill:#ffffff;fill-opacity:1;fill-rule:nonzero;stroke:none"
             id="path908" />
        </g>
        <g
           id="g910"
           transform="translate(1499.517,834.4279)">
          <path
             d="m 0,0 -166.061,-5.789 c -10.157,-0.354 -18.585,7.784 -18.585,17.947 v 172.488 c 0,10.152 8.411,18.287 18.559,17.948 l 166.06,-5.546 C 9.654,196.725 17.332,188.784 17.332,179.1 V 17.947 C 17.332,8.274 9.669,0.337 0,0"
             style="fill:#b9efd4;fill-opacity:1;fill-rule:nonzero;stroke:none"
             id="path912" />
        </g>
        <g
           id="g914"
           transform="translate(1365.1399,985.166)">
          <path
             d="M 0,0 C 0,10.21 8.323,17.524 18.487,18.485 34.07,19.962 37.948,7.912 37.948,-2.299 c 0,-10.21 -8.904,-16.945 -22.116,-16.945 C 5.623,-19.244 0,-10.21 0,0"
             style="fill:#008059;fill-opacity:1;fill-rule:nonzero;stroke:none"
             id="path916" />
        </g>
        <g
           id="g918"
           transform="translate(1349.7206,915.4623)">
          <path
             d="m 0,0 -15.761,-34.613 c -4.704,-10.326 2.205,-22.434 12.802,-22.434 h 138.204 c 9.768,0 16.658,10.424 13.541,20.496 L 117.584,64.275 C 113.547,77.323 97.058,78.638 91.313,66.371 L 58.391,-3.927 C 54.164,-12.952 43.256,-15.238 36.248,-8.567 L 22.213,4.797 C 15.155,11.515 4.162,9.14 0,0"
             style="fill:#008059;fill-opacity:1;fill-rule:nonzero;stroke:none"
             id="path920" />
        </g>
        <g
           id="g922"
           transform="translate(2134.3647,766.8364)">
          <path
             d="m 0,0 -221.462,-7.72 c -13.545,-0.473 -24.784,10.38 -24.784,23.934 v 230.032 c 0,13.54 11.217,24.389 24.749,23.935 l 221.462,-7.396 c 12.909,-0.432 23.15,-11.02 23.15,-23.937 V 23.934 C 23.115,11.033 12.895,0.449 0,0"
             style="fill:#b9efd4;fill-opacity:1;fill-rule:nonzero;stroke:none"
             id="path924" />
        </g>
        <g
           id="g926"
           transform="translate(1951.4998,963.4999)">
          <path
             d="m 0,0 -4.521,-124.139 c -0.661,-18.141 18.683,-30.097 34.615,-21.395 l 117.442,64.162 c 10.477,5.725 11.178,20.513 1.29,27.2 L 39.268,19.938 C 22.89,31.016 0.72,19.758 0,0"
             style="fill:#8a4d27;fill-opacity:1;fill-rule:nonzero;stroke:none"
             id="path928" />
        </g>
      </g>
    </g>
  </g>
</svg>
